<svg xmlns="http://www.w3.org/2000/svg" width="238.58705139160156" height="228.7474822998047" viewBox="-25.630361557006836 -15.244253158569336 238.58705139160156 228.7474822998047"><title>Neo4j Graph Visualization</title><desc>Created using Neo4j (http://www.neo4j.com/)</desc><g class="layer relationships"><g class="relationship" transform="translate(167.47490508991217 184.5032338846865) rotate(278.96658986773343)"><path class="outline" fill="#A5ABB6" stroke="none" d="M 21.40063509461097,12.933012701892217 L 21.90063509461097,12.06698729810778 A 58.17402503898455 58.17402503898455 0 0 0 38.35656510296023,18.473007589962236 L 38.13943928946051,19.449151217259 A 59.17402503898455 59.17402503898455 0 0 1 21.40063509461097,12.933012701892217 Z M 60.197978618196686,20.139648376330186 L 60.042330409408706,19.15183582574121 A 58.17402503898455 58.17402503898455 0 0 0 76.8667044616482,13.787586934267985 L 75.53213683476305,11.100780419226357 L 83.35834760122619,11.121396890709574 L 78.64612796416172,17.369995620990156 L 77.31156033727657,14.683189105948529 A 59.17402503898455 59.17402503898455 0 0 1 60.197978618196686,20.139648376330186"/><text text-anchor="middle" pointer-events="none" font-size="8px" fill="#000000" x="49.151877251375375" y="23.33210334221308" font-family="sans-serif">road</text></g><g class="relationship" transform="translate(183.9566924710982 80.04714173255049) rotate(219.01129895813233)"><path class="outline" fill="#A5ABB6" stroke="none" d="M 25 0.5 L 39.48824329550983 0.5 L 39.48824329550983 -0.5 L 25 -0.5 Z M 58.82418079550983 0.5 L 73.31242409101966 0.5 L 73.31242409101966 3.5 L 80.31242409101966 0 L 73.31242409101966 -3.5 L 73.31242409101966 -0.5 L 58.82418079550983 -0.5 Z"/><text text-anchor="middle" pointer-events="none" font-size="8px" fill="#000000" x="49.15621204550983" y="3" transform="rotate(180 49.15621204550983 0)" font-family="sans-serif">trek</text></g><g class="relationship" transform="translate(102.12663873583845 13.755747316598697) rotate(519.075465548295)"><path class="outline" fill="#A5ABB6" stroke="none" d="M 25 0.5 L 39.69688243674297 0.5 L 39.69688243674297 -0.5 L 25 -0.5 Z M 59.03281993674297 0.5 L 73.72970237348594 0.5 L 73.72970237348594 3.5 L 80.72970237348594 0 L 73.72970237348594 -3.5 L 73.72970237348594 -0.5 L 59.03281993674297 -0.5 Z"/><text text-anchor="middle" pointer-events="none" font-size="8px" fill="#000000" x="49.36485118674297" y="3" transform="rotate(180 49.36485118674297 0)" font-family="sans-serif">trek</text></g><g class="relationship" transform="translate(167.47490508991217 184.5032338846865) rotate(278.96658986773343)"><path class="outline" fill="#A5ABB6" stroke="none" d="M 25 0.5 L 25.628107196619872 0.5 L 25.628107196619872 -0.5 L 25 -0.5 Z M 73.12029469661988 0.5 L 73.74840189323974 0.5 L 73.74840189323974 3.5 L 80.74840189323974 0 L 73.74840189323974 -3.5 L 73.74840189323974 -0.5 L 73.12029469661988 -0.5 Z"/><text text-anchor="middle" pointer-events="none" font-size="8px" fill="#000000" x="49.37420094661987" y="3" font-family="sans-serif">PublicTra…</text></g><g class="relationship" transform="translate(167.47490508991217 184.5032338846865) rotate(278.96658986773343)"><path class="outline" fill="#A5ABB6" stroke="none" d="M 21.40063509461097,-12.933012701892217 L 21.90063509461097,-12.06698729810778 A 58.17402503898455 58.17402503898455 0 0 1 39.65458077999863,-18.746235819587348 L 39.45976759960567,-19.727076186183858 A 59.17402503898455 59.17402503898455 0 0 0 21.40063509461097,-12.933012701892217 Z M 58.86285258115202,-20.334449814025156 L 58.729767076796676,-19.34334525418776 A 58.17402503898455 58.17402503898455 0 0 1 76.8667044616482,-13.787586934267985 L 75.53213683476305,-11.100780419226357 L 83.35834760122619,-11.121396890709574 L 78.64612796416172,-17.369995620990156 L 77.31156033727657,-14.683189105948529 A 59.17402503898455 59.17402503898455 0 0 0 58.86285258115202,-20.334449814025156"/><text text-anchor="middle" pointer-events="none" font-size="8px" fill="#000000" x="49.15187725137538" y="-17.33210334221308" font-family="sans-serif">trek</text></g></g><g class="layer nodes"><g class="node" transform="translate(167.47490508991217,184.5032338846865)"><circle class="outline" cx="0" cy="0" r="25" fill="#F16667" stroke="#eb2728" stroke-width="2px"/><text text-anchor="middle" pointer-events="none" font-family="sans-serif" dy="1.5625" font-size="25" fill="#FFFFFF"/><text text-anchor="middle" pointer-events="none" y="5" font-size="10px" fill="#FFFFFF" font-family="sans-serif"> Darjeeling</text></g><g class="node" transform="translate(183.9566924710982,80.04714173255049)"><circle class="outline" cx="0" cy="0" r="25" fill="#F16667" stroke="#eb2728" stroke-width="2px"/><text text-anchor="middle" pointer-events="none" font-family="sans-serif" dy="1.5625" font-size="25" fill="#FFFFFF"/><text text-anchor="middle" pointer-events="none" y="5" font-size="10px" fill="#FFFFFF" font-family="sans-serif"> Rimbik</text></g><g class="node" transform="translate(102.12663873583845,13.755747316598697)"><circle class="outline" cx="0" cy="0" r="25" fill="#D9C8AE" stroke="#c0a378" stroke-width="2px"/><text text-anchor="middle" pointer-events="none" font-family="sans-serif" dy="1.5625" font-size="25" fill="#604A0E"/><text text-anchor="middle" pointer-events="none" y="5" font-size="10px" fill="#604A0E" font-family="sans-serif"> BhikeBh…</text></g><g class="node" transform="translate(3.3696377906211903,51.5158417059441)"><circle class="outline" cx="0" cy="0" r="25" fill="#8DCC93" stroke="#5db665" stroke-width="2px"/><text text-anchor="middle" pointer-events="none" font-family="sans-serif" dy="1.5625" font-size="25" fill="#604A0E"/><text text-anchor="middle" pointer-events="none" y="5" font-size="10px" fill="#604A0E" font-family="sans-serif"> Sandak…</text></g></g></svg>