<svg xmlns="http://www.w3.org/2000/svg" width="238.55014038085938" height="228.8123779296875" viewBox="-25.576194763183594 -15.23876953125 238.55014038085938 228.8123779296875"><title>Neo4j Graph Visualization</title><desc>Created using Neo4j (http://www.neo4j.com/)</desc><g class="layer relationships"><g class="relationship" transform="translate(167.37064835883405 184.57359316989206) rotate(279.0335341962678)"><path class="outline" fill="#A5ABB6" stroke="none" d="M 21.40063509461097,12.933012701892217 L 21.90063509461097,12.06698729810778 A 58.17046850478823 58.17046850478823 0 0 0 38.35485885627516,18.472460200268962 L 38.13772100582634,19.448601150082297 A 59.17046850478823 59.17046850478823 0 0 1 21.40063509461097,12.933012701892217 Z M 60.19625524987126,20.13911935766633 L 60.04059675779558,19.151308427455128 A 58.17046850478823 58.17046850478823 0 0 0 76.8632439713216,13.787531453299541 L 75.52868150572,11.100722374595321 L 83.35489223256504,11.12135388001321 L 78.6426605921237,17.3699435582385 L 77.30809812652211,14.68313447953428 A 59.17046850478823 59.17046850478823 0 0 1 60.19625524987126,20.13911935766633"/><text text-anchor="middle" pointer-events="none" font-size="8px" fill="#000000" x="49.150153935168206" y="23.331626835026363" font-family="sans-serif">road</text></g><g class="relationship" transform="translate(183.9739316686476 80.14022102736331) rotate(219.0732508301237)"><path class="outline" fill="#A5ABB6" stroke="none" d="M 25 0.5 L 39.487573308472015 0.5 L 39.487573308472015 -0.5 L 25 -0.5 Z M 58.823510808472015 0.5 L 73.31108411694403 0.5 L 73.31108411694403 3.5 L 80.31108411694403 0 L 73.31108411694403 -3.5 L 73.31108411694403 -0.5 L 58.823510808472015 -0.5 Z"/><text text-anchor="middle" pointer-events="none" font-size="8px" fill="#000000" x="49.155542058472015" y="3" transform="rotate(180 49.155542058472015 0)" font-family="sans-serif">trek</text></g><g class="relationship" transform="translate(102.21664453882168 13.761230081000893) rotate(519.1308008434587)"><path class="outline" fill="#A5ABB6" stroke="none" d="M 25 0.5 L 39.696569876091694 0.5 L 39.696569876091694 -0.5 L 25 -0.5 Z M 59.032507376091694 0.5 L 73.72907725218339 0.5 L 73.72907725218339 3.5 L 80.72907725218339 0 L 73.72907725218339 -3.5 L 73.72907725218339 -0.5 L 59.032507376091694 -0.5 Z"/><text text-anchor="middle" pointer-events="none" font-size="8px" fill="#000000" x="49.364538626091694" y="3" transform="rotate(180 49.364538626091694 0)" font-family="sans-serif">trek</text></g><g class="relationship" transform="translate(167.37064835883405 184.57359316989206) rotate(279.0335341962678)"><path class="outline" fill="#A5ABB6" stroke="none" d="M 25 0.5 L 25.62639019421676 0.5 L 25.62639019421676 -0.5 L 25 -0.5 Z M 73.11857769421675 0.5 L 73.74496788843352 0.5 L 73.74496788843352 3.5 L 80.74496788843352 0 L 73.74496788843352 -3.5 L 73.74496788843352 -0.5 L 73.11857769421675 -0.5 Z"/><text text-anchor="middle" pointer-events="none" font-size="8px" fill="#000000" x="49.37248394421676" y="3" font-family="sans-serif">PublicTra…</text></g><g class="relationship" transform="translate(167.37064835883405 184.57359316989206) rotate(279.0335341962678)"><path class="outline" fill="#A5ABB6" stroke="none" d="M 21.40063509461097,-12.933012701892217 L 21.90063509461097,-12.06698729810778 A 58.17046850478823 58.17046850478823 0 0 1 39.652870673152115,-18.745703395728206 L 39.458046753641824,-19.72654162927472 A 59.17046850478823 59.17046850478823 0 0 0 21.40063509461097,-12.933012701892217 Z M 58.86113042582047,-20.33393387078474 L 58.72803597384434,-19.342830512474833 A 58.17046850478823 58.17046850478823 0 0 1 76.8632439713216,-13.787531453299541 L 75.52868150572,-11.100722374595321 L 83.35489223256504,-11.12135388001321 L 78.6426605921237,-17.3699435582385 L 77.30809812652211,-14.68313447953428 A 59.17046850478823 59.17046850478823 0 0 0 58.86113042582047,-20.33393387078474"/><text text-anchor="middle" pointer-events="none" font-size="8px" fill="#000000" x="49.15015393516821" y="-17.331626835026363" font-family="sans-serif">trek</text></g></g><g class="layer nodes"><g class="node" transform="translate(167.37064835883405,184.57359316989206)"><circle class="outline" cx="0" cy="0" r="25" fill="#F16667" stroke="#eb2728" stroke-width="2px"/><text text-anchor="middle" pointer-events="none" font-family="sans-serif" dy="1.5625" font-size="25" fill="#FFFFFF"/><text text-anchor="middle" pointer-events="none" y="5" font-size="10px" fill="#FFFFFF" font-family="sans-serif"> Darjeeling</text></g><g class="node" transform="translate(183.9739316686476,80.14022102736331)"><circle class="outline" cx="0" cy="0" r="25" fill="#F16667" stroke="#eb2728" stroke-width="2px"/><text text-anchor="middle" pointer-events="none" font-family="sans-serif" dy="1.5625" font-size="25" fill="#FFFFFF"/><text text-anchor="middle" pointer-events="none" y="5" font-size="10px" fill="#FFFFFF" font-family="sans-serif"> Rimbik</text></g><g class="node" transform="translate(102.21664453882168,13.761230081000893)"><circle class="outline" cx="0" cy="0" r="25" fill="#D9C8AE" stroke="#c0a378" stroke-width="2px"/><text text-anchor="middle" pointer-events="none" font-family="sans-serif" dy="1.5625" font-size="25" fill="#604A0E"/><text text-anchor="middle" pointer-events="none" y="5" font-size="10px" fill="#604A0E" font-family="sans-serif"> BhikeBh…</text></g><g class="node" transform="translate(3.4238057065812666,51.42570634266066)"><circle class="outline" cx="0" cy="0" r="25" fill="#8DCC93" stroke="#5db665" stroke-width="2px"/><text text-anchor="middle" pointer-events="none" font-family="sans-serif" dy="1.5625" font-size="25" fill="#604A0E"/><text text-anchor="middle" pointer-events="none" y="5" font-size="10px" fill="#604A0E" font-family="sans-serif"> Sandak…</text></g></g></svg>