<svg xmlns="http://www.w3.org/2000/svg" width="379.9688720703125" height="409.274658203125" viewBox="-75.90739440917969 -86.05614471435547 379.9688720703125 409.274658203125"><title>Neo4j Graph Visualization</title><desc>Created using Neo4j (http://www.neo4j.com/)</desc><g class="layer relationships"><g class="relationship" transform="translate(58.7722380951444 294.2184956820458) rotate(292.67371075746865)"><path class="outline" fill="#A5ABB6" stroke="none" d="M 21.40063509461097,12.933012701892217 L 21.90063509461097,12.06698729810778 A 64.24367289426175 64.24367289426175 0 0 0 42.580416094267214,19.64685828172575 L 42.40231208912562,20.63086995002675 A 65.24367289426175 65.24367289426175 0 0 1 21.40063509461097,12.933012701892217 Z M 61.80666167607853,21.20797911426625 L 61.687352173884314,20.215122003355432 A 64.24367289426175 64.24367289426175 0 0 0 82.78105216035077,13.877645596852577 L 81.43810680917467,11.195016702697721 L 89.26434380524144,11.191211259800824 L 84.57164596191889,17.454484122392387 L 83.22870061074279,14.77185522823753 A 65.24367289426175 65.24367289426175 0 0 1 61.80666167607853,21.20797911426625"/><text text-anchor="middle" pointer-events="none" font-size="8px" fill="#000000" x="52.09776632653955" y="24.145392212676725" font-family="sans-serif">trek</text></g><g class="relationship" transform="translate(101.79965805447671 191.22542409149008) rotate(340.8135438946739)"><path class="outline" fill="#A5ABB6" stroke="none" d="M 24.018736134675446,-6.953439040707552 L 24.277555179777966,-5.987513214418485 A 137.83589899749344 137.83589899749344 0 0 1 35.01946174423393,-8.410414277579719 L 34.838575274335575,-9.393918260798756 A 138.83589899749344 138.83589899749344 0 0 0 24.018736134675446,-6.953439040707552 Z M 81.24794738280787,-10.041167294050751 L 81.09455883850899,-9.053001339123199 A 137.83589899749344 137.83589899749344 0 0 1 91.89985641267114,-6.930608695153801 L 91.20451334807309,-4.012304731801901 L 98.82512283792524,-5.7945255383170196 L 92.82698049880186,-10.821680646289666 L 92.13163743420381,-7.9033766829377665 A 138.83589899749344 138.83589899749344 0 0 0 81.24794738280787,-10.041167294050751"/><text text-anchor="middle" pointer-events="none" font-size="8px" fill="#000000" x="58.022994764841755" y="-8.170706010096495" font-family="sans-serif">twowheeler</text></g><g class="relationship" transform="translate(218.10381629035683 150.75485516742182) rotate(298.59583353241703)"><path class="outline" fill="#A5ABB6" stroke="none" d="M 24.018736134675446,-6.953439040707552 L 24.277555179777966,-5.987513214418485 A 129.61562001445773 129.61562001445773 0 0 1 46.34170466800484,-9.894415372763149 L 46.25311317329914,-10.890483416154666 A 130.61562001445773 130.61562001445773 0 0 0 24.018736134675446,-6.953439040707552 Z M 65.64348617414761,-11.169818806268296 L 65.58362396171857,-10.171612156559377 A 129.61562001445773 129.61562001445773 0 0 1 87.75115880449577,-6.901906342887616 L 87.05849662491741,-3.9829649071986846 L 94.677465851033,-5.772184829819612 L 88.67470837726691,-10.793828257139525 L 87.98204619768855,-7.874886821450594 A 130.61562001445773 130.61562001445773 0 0 0 65.64348617414761,-11.169818806268296"/><text text-anchor="middle" pointer-events="none" font-size="8px" fill="#000000" x="55.95031062008287" y="-7.890559060310579" font-family="sans-serif">trek</text></g><g class="relationship" transform="translate(275.06149623730124 46.26900244577934) rotate(213.24314157520183)"><path class="outline" fill="#A5ABB6" stroke="none" d="M 24.018736134675446,6.953439040707552 L 24.277555179777966,5.987513214418485 A 132.5447619847233 132.5447619847233 0 0 0 47.07836350197287,10.00366135431375 L 46.99156791506497,10.999887496358468 A 133.5447619847233 133.5447619847233 0 0 1 24.018736134675446,6.953439040707552 Z M 66.38113030762112,11.27597278184561 L 66.32273440888488,10.277679278405486 A 132.5447619847233 132.5447619847233 0 0 0 89.22864666542394,6.912342783671735 L 88.53500968656805,3.9936328389249702 L 96.1545760329757,5.780308157132445 L 90.15349597056512,10.80395604333409 L 89.45985899170923,7.8852460985873245 A 133.5447619847233 133.5447619847233 0 0 1 66.38113030762112,11.27597278184561"/><text text-anchor="middle" pointer-events="none" font-size="8px" fill="#000000" x="56.68845003708489" y="13.9903814181273" transform="rotate(180 56.68845003708489 10.9903814181273)" font-family="sans-serif">trek</text></g><g class="relationship" transform="translate(58.7722380951444 294.2184956820458) rotate(292.67371075746865)"><path class="outline" fill="#A5ABB6" stroke="none" d="M 25 0.5 L 26.33908916993262 0.5 L 26.33908916993262 -0.5 L 25 -0.5 Z M 78.28049541993262 0.5 L 79.61958458986524 0.5 L 79.61958458986524 3.5 L 86.61958458986524 0 L 79.61958458986524 -3.5 L 79.61958458986524 -0.5 L 78.28049541993262 -0.5 Z"/><text text-anchor="middle" pointer-events="none" font-size="8px" fill="#000000" x="52.30979229493262" y="3" font-family="sans-serif">PublicTran…</text></g><g class="relationship" transform="translate(58.7722380951444 294.2184956820458) rotate(292.67371075746865)"><path class="outline" fill="#A5ABB6" stroke="none" d="M 21.40063509461097,-12.933012701892217 L 21.90063509461097,-12.06698729810778 A 64.24367289426175 64.24367289426175 0 0 1 41.276618991249926,-19.39693481040326 L 41.078220425659346,-20.377056236131523 A 65.24367289426175 65.24367289426175 0 0 0 21.40063509461097,-12.933012701892217 Z M 63.143497104075,-21.033304636807415 L 63.003697715755536,-20.043124788989097 A 64.24367289426175 64.24367289426175 0 0 1 82.78105216035077,-13.877645596852577 L 81.43810680917467,-11.195016702697721 L 89.26434380524144,-11.191211259800824 L 84.57164596191889,-17.454484122392387 L 83.22870061074279,-14.77185522823753 A 65.24367289426175 65.24367289426175 0 0 0 63.143497104075,-21.033304636807415"/><text text-anchor="middle" pointer-events="none" font-size="8px" fill="#000000" x="52.09776632653953" y="-18.145392212676725" font-family="sans-serif">road</text></g><g class="relationship" transform="translate(101.79965805447671 191.22542409149008) rotate(340.8135438946739)"><path class="outline" fill="#A5ABB6" stroke="none" d="M 24.018736134675446,6.953439040707552 L 24.277555179777966,5.987513214418485 A 137.83589899749344 137.83589899749344 0 0 0 48.41041040424604,10.200084931253883 L 48.32667532057876,11.196572982242571 A 138.83589899749344 138.83589899749344 0 0 1 24.018736134675446,6.953439040707552 Z M 67.71482160367046,11.466970067317277 L 67.6589087546122,10.468534414252844 A 137.83589899749344 137.83589899749344 0 0 0 91.89985641267114,6.930608695153801 L 91.20451334807309,4.012304731801901 L 98.82512283792524,5.7945255383170196 L 92.82698049880186,10.821680646289666 L 92.13163743420381,7.9033766829377665 A 138.83589899749344 138.83589899749344 0 0 1 67.71482160367046,11.466970067317277"/><text text-anchor="middle" pointer-events="none" font-size="8px" fill="#000000" x="58.02299476484177" y="14.170706010096495" font-family="sans-serif">trek</text></g><g class="relationship" transform="translate(218.10381629035683 150.75485516742182) rotate(298.59583353241703)"><path class="outline" fill="#A5ABB6" stroke="none" d="M 24.018736134675446,6.953439040707552 L 24.277555179777966,5.987513214418485 A 129.61562001445773 129.61562001445773 0 0 0 32.9692123852071,7.9985846987581795 L 32.77745051426661,8.980026181911086 A 130.61562001445773 130.61562001445773 0 0 1 24.018736134675446,6.953439040707552 Z M 79.16858901696841,9.648331364637642 L 79.0051779116786,8.661773302145647 A 129.61562001445773 129.61562001445773 0 0 0 87.75115880449577,6.901906342887616 L 87.05849662491741,3.9829649071986846 L 94.677465851033,5.772184829819612 L 88.67470837726691,10.793828257139525 L 87.98204619768855,7.874886821450594 A 130.61562001445773 130.61562001445773 0 0 1 79.16858901696841,9.648331364637642"/><text text-anchor="middle" pointer-events="none" font-size="8px" fill="#000000" x="55.9503106200829" y="13.89055906031058" font-family="sans-serif">twowheeler</text></g><g class="relationship" transform="translate(218.10381629035683 150.75485516742182) rotate(246.7275041752036)"><path class="outline" fill="#A5ABB6" stroke="none" d="M 24.018736134675446,-6.953439040707552 L 24.277555179777966,-5.987513214418485 A 118.10857365721911 118.10857365721911 0 0 1 43.453468629247524,-9.461200738708584 L 43.35700793676657,-10.456537533369612 A 119.10857365721911 119.10857365721911 0 0 0 24.018736134675446,-6.953439040707552 Z M 62.75075110417056,-10.749392915514264 L 62.684387723019185,-9.751597394557109 A 118.10857365721911 118.10857365721911 0 0 1 81.95644295626114,-6.858493745389471 L 81.2678357192595,-3.9385930496210415 L 88.88431245255443,-5.738393641680372 L 82.87458593893001,-10.75169467308071 L 82.18597870192836,-7.831793977312281 A 119.10857365721911 119.10857365721911 0 0 0 62.75075110417056,-10.749392915514264"/><text text-anchor="middle" pointer-events="none" font-size="8px" fill="#000000" x="53.05545783351138" y="-7.498444701151556" transform="rotate(180 53.05545783351138 -10.498444701151556)" font-family="sans-serif">trek</text></g><g class="relationship" transform="translate(173.37133428621456 46.74979284570564) rotate(359.72910795934126)"><path class="outline" fill="#A5ABB6" stroke="none" d="M 21.40063509461097,12.933012701892217 L 21.90063509461097,12.06698729810778 A 53.966388800357805 53.966388800357805 0 0 0 37.6353987908968,18.111818053967852 L 37.426964783101596,19.089854487028717 A 54.966388800357805 54.966388800357805 0 0 1 21.40063509461097,12.933012701892217 Z M 56.82786540175249,19.720025823121915 L 56.68334006398988,18.73052472320105 A 53.966388800357805 53.966388800357805 0 0 0 72.7772138729564,13.719537468576654 L 71.4489768956839,11.029595734596898 L 79.27511741512124,11.06864147727079 L 74.54819650931972,17.30612644721633 L 73.21995953204723,14.616184713236574 A 54.966388800357805 54.966388800357805 0 0 1 56.82786540175249,19.720025823121915"/><text text-anchor="middle" pointer-events="none" font-size="8px" fill="#000000" x="47.11560926374388" y="22.768402749903757" font-family="sans-serif">trek</text></g><g class="relationship" transform="translate(218.10381629035683 150.75485516742182) rotate(246.7275041752036)"><path class="outline" fill="#A5ABB6" stroke="none" d="M 24.018736134675446,6.953439040707552 L 24.277555179777966,5.987513214418485 A 118.10857365721911 118.10857365721911 0 0 0 30.11289318137968,7.393190247557456 L 29.903480693488977,8.371017640257932 A 119.10857365721911 119.10857365721911 0 0 1 24.018736134675446,6.953439040707552 Z M 76.26111471811367,9.071041483536462 L 76.08132236036465,8.08733689978429 A 118.10857365721911 118.10857365721911 0 0 0 81.95644295626114,6.858493745389471 L 81.2678357192595,3.9385930496210415 L 88.88431245255443,5.738393641680372 L 82.87458593893001,10.75169467308071 L 82.18597870192836,7.831793977312281 A 119.10857365721911 119.10857365721911 0 0 1 76.26111471811367,9.071041483536462"/><text text-anchor="middle" pointer-events="none" font-size="8px" fill="#000000" x="53.05545783351143" y="13.498444701151556" transform="rotate(180 53.05545783351143 10.498444701151556)" font-family="sans-serif">twowheeler</text></g><g class="relationship" transform="translate(173.37133428621456 46.74979284570564) rotate(359.72910795934126)"><path class="outline" fill="#A5ABB6" stroke="none" d="M 25 0.5 L 36.3397898908096 0.5 L 36.3397898908096 -0.5 L 25 -0.5 Z M 58.3515086408096 0.5 L 69.6912985316192 0.5 L 69.6912985316192 3.5 L 76.6912985316192 0 L 69.6912985316192 -3.5 L 69.6912985316192 -0.5 L 58.3515086408096 -0.5 Z"/><text text-anchor="middle" pointer-events="none" font-size="8px" fill="#000000" x="47.3456492658096" y="3" font-family="sans-serif">road</text></g><g class="relationship" transform="translate(173.37133428621456 46.74979284570564) rotate(359.72910795934126)"><path class="outline" fill="#A5ABB6" stroke="none" d="M 21.40063509461097,-12.933012701892217 L 21.90063509461097,-12.06698729810778 A 53.966388800357805 53.966388800357805 0 0 1 24.97314001498589,-13.71098872174322 L 24.530073691458874,-14.607477557678308 A 54.966388800357805 54.966388800357805 0 0 0 21.40063509461097,-12.933012701892217 Z M 69.98845362685213,-16.08403622800003 L 69.60449854825464,-15.160684454503496 A 53.966388800357805 53.966388800357805 0 0 1 72.7772138729564,-13.719537468576654 L 71.4489768956839,-11.029595734596898 L 79.27511741512124,-11.06864147727079 L 74.54819650931972,-17.30612644721633 L 73.21995953204723,-14.616184713236574 A 54.966388800357805 54.966388800357805 0 0 0 69.98845362685213,-16.08403622800003"/><text text-anchor="middle" pointer-events="none" font-size="8px" fill="#000000" x="47.11560926374388" y="-16.768402749903757" font-family="sans-serif">twowheeler</text></g><g class="relationship" transform="translate(275.06149623730124 46.26900244577934) rotate(213.24314157520183)"><path class="outline" fill="#A5ABB6" stroke="none" d="M 24.018736134675446,-6.953439040707552 L 24.277555179777966,-5.987513214418485 A 132.5447619847233 132.5447619847233 0 0 1 33.69893583377508,-8.147099337676934 L 33.51119753537972,-9.129318422869034 A 133.5447619847233 133.5447619847233 0 0 0 24.018736134675446,-6.953439040707552 Z M 79.90929438391865,-9.789974478696621 L 79.74959788847428,-8.802808317737515 A 132.5447619847233 132.5447619847233 0 0 1 89.22864666542394,-6.912342783671735 L 88.53500968656805,-3.9936328389249702 L 96.1545760329757,-5.780308157132445 L 90.15349597056512,-10.80395604333409 L 89.45985899170923,-7.8852460985873245 A 133.5447619847233 133.5447619847233 0 0 0 79.90929438391865,-9.789974478696621"/><text text-anchor="middle" pointer-events="none" font-size="8px" fill="#000000" x="56.68845003708485" y="-7.990381418127271" transform="rotate(180 56.68845003708485 -10.99038141812727)" font-family="sans-serif">twowheeler</text></g><g class="relationship" transform="translate(58.7722380951444 294.2184956820458) rotate(227.5720303527424)"><path class="outline" fill="#A5ABB6" stroke="none" d="M 24.018736134675446,-6.953439040707552 L 24.277555179777966,-5.987513214418485 A 105.98811207081334 105.98811207081334 0 0 1 40.42248395229504,-8.996283229453965 L 40.31599263958698,-9.990596862226695 A 106.98811207081334 106.98811207081334 0 0 0 24.018736134675446,-6.953439040707552 Z M 59.71358870386287,-10.299130760523212 L 59.638773928550265,-9.301933312975876 A 105.98811207081334 105.98811207081334 0 0 1 75.87122509204364,-6.808150784801353 L 75.18732024228835,-3.8871451092708873 L 82.80088914324061,-5.699207081294088 L 76.7830982250507,-10.702825018841974 L 76.0991933752954,-7.781819343311509 A 106.98811207081334 106.98811207081334 0 0 0 59.71358870386287,-10.299130760523212"/><text text-anchor="middle" pointer-events="none" font-size="8px" fill="#000000" x="50.01573485661445" y="-7.085502693526578" transform="rotate(180 50.01573485661445 -10.085502693526578)" font-family="sans-serif">trek</text></g><g class="relationship" transform="translate(-13.512889806653666 215.13374566948417) rotate(252.92786833717275)"><path class="outline" fill="#A5ABB6" stroke="none" d="M 21.40063509461097,-12.933012701892217 L 21.90063509461097,-12.06698729810778 A 66.442083131972 66.442083131972 0 0 1 43.643430059249184,-19.96956251761182 L 43.47067438904317,-20.954527226833264 A 67.442083131972 67.442083131972 0 0 0 21.40063509461097,-12.933012701892217 Z M 62.87510762265265,-21.52137228858321 L 62.76014333623102,-20.528002663092494 A 66.442083131972 66.442083131972 0 0 1 84.9271701885812,-13.908127399811328 L 83.58138937664688,-11.226919834882905 L 91.40761797540324,-11.214840099452656 L 86.72154460449363,-17.483070819715895 L 85.37576379255931,-14.80186325478747 A 67.442083131972 67.442083131972 0 0 0 62.87510762265265,-21.52137228858321"/><text text-anchor="middle" pointer-events="none" font-size="8px" fill="#000000" x="53.16698885089041" y="-18.439994336615854" transform="rotate(180 53.16698885089041 -21.439994336615854)" font-family="sans-serif">trek</text></g><g class="relationship" transform="translate(-46.9073891458512 106.39506497354098) rotate(343.2230986742619)"><path class="outline" fill="#A5ABB6" stroke="none" d="M 21.40063509461097,12.933012701892217 L 21.90063509461097,12.06698729810778 A 72.89521053017603 72.89521053017603 0 0 0 46.77233505178659,20.90808626674516 L 46.613533050616425,21.89539671661609 A 73.89521053017603 73.89521053017603 0 0 1 21.40063509461097,12.933012701892217 Z M 66.0174707800858,22.4340398265754 L 65.9136855636237,21.439440093595394 A 72.89521053017603 72.89521053017603 0 0 0 91.23755391607865,13.991743711455316 L 89.88399529471637,11.314454213000616 L 97.71015584936667,11.279655178019087 L 93.0422987445617,17.56146304272825 L 91.68874012319942,14.88417354427355 A 73.89521053017603 73.89521053017603 0 0 1 66.0174707800858,22.4340398265754"/><text text-anchor="middle" pointer-events="none" font-size="8px" fill="#000000" x="56.311612451940455" y="25.304831278568457" font-family="sans-serif">trek</text></g><g class="relationship" transform="translate(68.00493594015866 71.7515319411785) rotate(319.26936729093376)"><path class="outline" fill="#A5ABB6" stroke="none" d="M 25 0.5 L 56.967486019606625 0.5 L 56.967486019606625 -0.5 L 25 -0.5 Z M 76.30342351960662 0.5 L 108.27090953921325 0.5 L 108.27090953921325 3.5 L 115.27090953921325 0 L 108.27090953921325 -3.5 L 108.27090953921325 -0.5 L 76.30342351960662 -0.5 Z"/><text text-anchor="middle" pointer-events="none" font-size="8px" fill="#000000" x="66.63545476960662" y="3" font-family="sans-serif">trek</text></g><g class="relationship" transform="translate(58.7722380951444 294.2184956820458) rotate(227.5720303527424)"><path class="outline" fill="#A5ABB6" stroke="none" d="M 24.018736134675446,6.953439040707552 L 24.277555179777966,5.987513214418485 A 105.98811207081334 105.98811207081334 0 0 0 39.09937284244366,8.846164868920852 L 38.98039794941701,9.839062131898899 A 106.98811207081334 106.98811207081334 0 0 1 24.018736134675446,6.953439040707552 Z M 61.05332710744424,10.19014929019329 L 60.96599002121643,9.193970474232415 A 105.98811207081334 105.98811207081334 0 0 0 75.87122509204364,6.808150784801353 L 75.18732024228835,3.8871451092708873 L 82.80088914324061,5.699207081294088 L 76.7830982250507,10.702825018841974 L 76.0991933752954,7.781819343311509 A 106.98811207081334 106.98811207081334 0 0 1 61.05332710744424,10.19014929019329"/><text text-anchor="middle" pointer-events="none" font-size="8px" fill="#000000" x="50.01573485661451" y="13.085502693526578" transform="rotate(180 50.01573485661451 10.085502693526578)" font-family="sans-serif">road</text></g><g class="relationship" transform="translate(101.79965805447671 191.22542409149008) rotate(528.286545523814)"><path class="outline" fill="#A5ABB6" stroke="none" d="M 25 0.5 L 45.71452341639497 0.5 L 45.71452341639497 -0.5 L 25 -0.5 Z M 65.05046091639497 0.5 L 85.76498433278994 0.5 L 85.76498433278994 3.5 L 92.76498433278994 0 L 85.76498433278994 -3.5 L 85.76498433278994 -0.5 L 65.05046091639497 -0.5 Z"/><text text-anchor="middle" pointer-events="none" font-size="8px" fill="#000000" x="55.38249216639497" y="3" transform="rotate(180 55.38249216639497 0)" font-family="sans-serif">trek</text></g><g class="relationship" transform="translate(-13.512889806653666 215.13374566948417) rotate(252.92786833717275)"><path class="outline" fill="#A5ABB6" stroke="none" d="M 25 0.5 L 42.3696477999034 0.5 L 42.3696477999034 -0.5 L 25 -0.5 Z M 64.38136654990339 0.5 L 81.7510143498068 0.5 L 81.7510143498068 3.5 L 88.7510143498068 0 L 81.7510143498068 -3.5 L 81.7510143498068 -0.5 L 64.38136654990339 -0.5 Z"/><text text-anchor="middle" pointer-events="none" font-size="8px" fill="#000000" x="53.3755071749034" y="3" transform="rotate(180 53.3755071749034 0)" font-family="sans-serif">road</text></g><g class="relationship" transform="translate(-13.512889806653666 215.13374566948417) rotate(252.92786833717275)"><path class="outline" fill="#A5ABB6" stroke="none" d="M 21.40063509461097,12.933012701892217 L 21.90063509461097,12.06698729810778 A 66.442083131972 66.442083131972 0 0 0 30.708108977314936,16.320695641599826 L 30.34066764296077,17.250742342474588 A 67.442083131972 67.442083131972 0 0 1 21.40063509461097,12.933012701892217 Z M 76.19893099367792,18.590360449730582 L 75.88640721988172,17.64045051146686 A 66.442083131972 66.442083131972 0 0 0 84.9271701885812,13.908127399811328 L 83.58138937664688,11.226919834882905 L 91.40761797540324,11.214840099452656 L 86.72154460449363,17.483070819715895 L 85.37576379255931,14.80186325478747 A 67.442083131972 67.442083131972 0 0 1 76.19893099367792,18.590360449730582"/><text text-anchor="middle" pointer-events="none" font-size="8px" fill="#000000" x="53.16698885089042" y="24.439994336615854" transform="rotate(180 53.16698885089042 21.439994336615854)" font-family="sans-serif">twowheeler</text></g><g class="relationship" transform="translate(-46.9073891458512 106.39506497354098) rotate(343.2230986742619)"><path class="outline" fill="#A5ABB6" stroke="none" d="M 25 0.5 L 45.504591459911246 0.5 L 45.504591459911246 -0.5 L 25 -0.5 Z M 67.51631020991124 0.5 L 88.02090166982249 0.5 L 88.02090166982249 3.5 L 95.02090166982249 0 L 88.02090166982249 -3.5 L 88.02090166982249 -0.5 L 67.51631020991124 -0.5 Z"/><text text-anchor="middle" pointer-events="none" font-size="8px" fill="#000000" x="56.510450834911246" y="3" font-family="sans-serif">road</text></g><g class="relationship" transform="translate(-46.9073891458512 106.39506497354098) rotate(343.2230986742619)"><path class="outline" fill="#A5ABB6" stroke="none" d="M 21.40063509461097,-12.933012701892217 L 21.90063509461097,-12.06698729810778 A 72.89521053017603 72.89521053017603 0 0 1 33.743965130083986,-17.555237811118232 L 33.40643574988651,-18.496552804892104 A 73.89521053017603 73.89521053017603 0 0 0 21.40063509461097,-12.933012701892217 Z M 79.39278422332168,-19.77310966168848 L 79.10799521314586,-18.81451943657501 A 72.89521053017603 72.89521053017603 0 0 1 91.23755391607865,-13.991743711455316 L 89.88399529471637,-11.314454213000616 L 97.71015584936667,-11.279655178019087 L 93.0422987445617,-17.56146304272825 L 91.68874012319942,-14.88417354427355 A 73.89521053017603 73.89521053017603 0 0 0 79.39278422332168,-19.77310966168848"/><text text-anchor="middle" pointer-events="none" font-size="8px" fill="#000000" x="56.31161245194047" y="-19.304831278568457" font-family="sans-serif">twowheeler</text></g><g class="relationship" transform="translate(101.79965805447671 191.22542409149008) rotate(254.20576419144703)"><path class="outline" fill="#A5ABB6" stroke="none" d="M 25 0.5 L 48.912813599146226 0.5 L 48.912813599146226 -0.5 L 25 -0.5 Z M 68.24875109914623 0.5 L 92.16156469829245 0.5 L 92.16156469829245 3.5 L 99.16156469829245 0 L 92.16156469829245 -3.5 L 92.16156469829245 -0.5 L 68.24875109914623 -0.5 Z"/><text text-anchor="middle" pointer-events="none" font-size="8px" fill="#000000" x="58.580782349146226" y="3" transform="rotate(180 58.580782349146226 0)" font-family="sans-serif">trek</text></g><g class="relationship" transform="translate(173.37133428621456 46.74979284570564) rotate(230.83399882716236)"><path class="outline" fill="#A5ABB6" stroke="none" d="M 25 0.5 L 53.77601432836423 0.5 L 53.77601432836423 -0.5 L 25 -0.5 Z M 73.11195182836423 0.5 L 101.88796615672845 0.5 L 101.88796615672845 3.5 L 108.88796615672845 0 L 101.88796615672845 -3.5 L 101.88796615672845 -0.5 L 73.11195182836423 -0.5 Z"/><text text-anchor="middle" pointer-events="none" font-size="8px" fill="#000000" x="63.44398307836423" y="3" transform="rotate(180 63.44398307836423 0)" font-family="sans-serif">trek</text></g><g class="relationship" transform="translate(88.81179906802305 -57.05614381144653) rotate(383.56139684692323)"><path class="outline" fill="#A5ABB6" stroke="none" d="M 25 0.5 L 33.46382385723702 0.5 L 33.46382385723702 -0.5 L 25 -0.5 Z M 52.79976135723702 0.5 L 61.263585214474034 0.5 L 61.263585214474034 3.5 L 68.26358521447403 0 L 61.263585214474034 -3.5 L 61.263585214474034 -0.5 L 52.79976135723702 -0.5 Z"/><text text-anchor="middle" pointer-events="none" font-size="8px" fill="#000000" x="43.13179260723702" y="3" font-family="sans-serif">trek</text></g></g><g class="layer nodes"><g class="node" transform="translate(58.7722380951444,294.2184956820458)"><circle class="outline" cx="0" cy="0" r="25" fill="#F16667" stroke="#eb2728" stroke-width="2px"/><text text-anchor="middle" pointer-events="none" font-family="sans-serif" dy="1.5625" font-size="25" fill="#FFFFFF"/><text text-anchor="middle" pointer-events="none" y="5" font-size="10px" fill="#FFFFFF" font-family="sans-serif"> Darjeeling</text></g><g class="node" transform="translate(101.79965805447671,191.22542409149008)"><circle class="outline" cx="0" cy="0" r="25" fill="#F16667" stroke="#eb2728" stroke-width="2px"/><text text-anchor="middle" pointer-events="none" font-family="sans-serif" dy="1.5625" font-size="25" fill="#FFFFFF"/><text text-anchor="middle" pointer-events="none" y="5" font-size="10px" fill="#FFFFFF" font-family="sans-serif"> Rimbik</text></g><g class="node" transform="translate(218.10381629035683,150.75485516742182)"><circle class="outline" cx="0" cy="0" r="25" fill="#D9C8AE" stroke="#c0a378" stroke-width="2px"/><text text-anchor="middle" pointer-events="none" font-family="sans-serif" dy="1.5625" font-size="25" fill="#604A0E"/><text text-anchor="middle" pointer-events="none" y="5" font-size="10px" fill="#604A0E" font-family="sans-serif"> Sirikhola</text></g><g class="node" transform="translate(275.06149623730124,46.26900244577934)"><circle class="outline" cx="0" cy="0" r="25" fill="#D9C8AE" stroke="#c0a378" stroke-width="2px"/><text text-anchor="middle" pointer-events="none" font-family="sans-serif" dy="1.5625" font-size="25" fill="#604A0E"/><text text-anchor="middle" pointer-events="none" y="5" font-size="10px" fill="#604A0E" font-family="sans-serif"> Gurdum</text></g><g class="node" transform="translate(174.30020973174163,-19.775747230282523)"><circle class="outline" cx="0" cy="0" r="25" fill="#8DCC93" stroke="#5db665" stroke-width="2px"/><text text-anchor="middle" pointer-events="none" font-family="sans-serif" dy="1.5625" font-size="25" fill="#604A0E"/><text text-anchor="middle" pointer-events="none" y="5" font-size="10px" fill="#604A0E" font-family="sans-serif"> Sandak…</text></g><g class="node" transform="translate(173.37133428621456,46.74979284570564)"><circle class="outline" cx="0" cy="0" r="25" fill="#D9C8AE" stroke="#c0a378" stroke-width="2px"/><text text-anchor="middle" pointer-events="none" font-family="sans-serif" dy="1.5625" font-size="25" fill="#604A0E"/><text text-anchor="middle" pointer-events="none" y="5" font-size="10px" fill="#604A0E" font-family="sans-serif"> Rammam</text></g><g class="node" transform="translate(-13.512889806653666,215.13374566948417)"><circle class="outline" cx="0" cy="0" r="25" fill="#D9C8AE" stroke="#c0a378" stroke-width="2px"/><text text-anchor="middle" pointer-events="none" font-family="sans-serif" dy="1.5625" font-size="25" fill="#604A0E"/><text text-anchor="middle" pointer-events="none" y="5" font-size="10px" fill="#604A0E" font-family="sans-serif"> Tumbling</text></g><g class="node" transform="translate(-46.9073891458512,106.39506497354098)"><circle class="outline" cx="0" cy="0" r="25" fill="#D9C8AE" stroke="#c0a378" stroke-width="2px"/><text text-anchor="middle" pointer-events="none" font-family="sans-serif" dy="1.5625" font-size="25" fill="#604A0E"/><text text-anchor="middle" pointer-events="none" y="5" font-size="10px" fill="#604A0E" font-family="sans-serif"> Gairibus</text></g><g class="node" transform="translate(68.00493594015866,71.7515319411785)"><circle class="outline" cx="0" cy="0" r="25" fill="#D9C8AE" stroke="#c0a378" stroke-width="2px"/><text text-anchor="middle" pointer-events="none" font-family="sans-serif" dy="1.5625" font-size="25" fill="#604A0E"/><text text-anchor="middle" pointer-events="none" y="5" font-size="10px" fill="#604A0E" font-family="sans-serif"> BhikeBh…</text></g><g class="node" transform="translate(88.81179906802305,-57.05614381144653)"><circle class="outline" cx="0" cy="0" r="25" fill="#8DCC93" stroke="#5db665" stroke-width="2px"/><text text-anchor="middle" pointer-events="none" font-family="sans-serif" dy="1.5625" font-size="25" fill="#604A0E"/><text text-anchor="middle" pointer-events="none" y="5" font-size="10px" fill="#604A0E" font-family="sans-serif"> Sabargr…</text></g></g></svg>