<svg xmlns="http://www.w3.org/2000/svg" width="510.5821533203125" height="314.0084228515625" viewBox="-22.281618118286133 -36.26551818847656 510.5821533203125 314.0084228515625"><title>Neo4j Graph Visualization</title><desc>Created using Neo4j (http://www.neo4j.com/)</desc><g class="layer relationships"><g class="relationship" transform="translate(459.30056088290445 137.05563375766465) rotate(186.15127034630552)"><path class="outline" fill="#A5ABB6" stroke="none" d="M 25 0.5 L 89.63413159729214 0.5 L 89.63413159729214 -0.5 L 25 -0.5 Z M 135.19663159729214 0.5 L 199.83076319458428 0.5 L 199.83076319458428 3.5 L 206.83076319458428 0 L 199.83076319458428 -3.5 L 199.83076319458428 -0.5 L 135.19663159729214 -0.5 Z"/><text text-anchor="middle" pointer-events="none" font-size="8px" fill="#000000" x="112.41538159729214" y="3" transform="rotate(180 112.41538159729214 0)" font-family="sans-serif">ACTED_IN</text></g><g class="relationship" transform="translate(459.30056088290445 137.05563375766465) rotate(539.8612861403486)"><path class="outline" fill="#A5ABB6" stroke="none" d="M 25 0.5 L 116.07982231601082 0.5 L 116.07982231601082 -0.5 L 25 -0.5 Z M 161.64232231601082 0.5 L 252.72214463202164 0.5 L 252.72214463202164 3.5 L 259.72214463202164 0 L 252.72214463202164 -3.5 L 252.72214463202164 -0.5 L 161.64232231601082 -0.5 Z"/><text text-anchor="middle" pointer-events="none" font-size="8px" fill="#000000" x="138.86107231601082" y="3" transform="rotate(180 138.86107231601082 0)" font-family="sans-serif">ACTED_IN</text></g><g class="relationship" transform="translate(459.30056088290445 137.05563375766465) rotate(518.7496414229759)"><path class="outline" fill="#A5ABB6" stroke="none" d="M 25 0.5 L 114.55939633928313 0.5 L 114.55939633928313 -0.5 L 25 -0.5 Z M 160.12189633928313 0.5 L 249.68129267856625 0.5 L 249.68129267856625 3.5 L 256.68129267856625 0 L 249.68129267856625 -3.5 L 249.68129267856625 -0.5 L 160.12189633928313 -0.5 Z"/><text text-anchor="middle" pointer-events="none" font-size="8px" fill="#000000" x="137.34064633928313" y="3" transform="rotate(180 137.34064633928313 0)" font-family="sans-serif">ACTED_IN</text></g><g class="relationship" transform="translate(459.30056088290445 137.05563375766465) rotate(511.2352691336562)"><path class="outline" fill="#A5ABB6" stroke="none" d="M 25 0.5 L 89.76615412870638 0.5 L 89.76615412870638 -0.5 L 25 -0.5 Z M 135.32865412870638 0.5 L 200.09480825741275 0.5 L 200.09480825741275 3.5 L 207.09480825741275 0 L 200.09480825741275 -3.5 L 200.09480825741275 -0.5 L 135.32865412870638 -0.5 Z"/><text text-anchor="middle" pointer-events="none" font-size="8px" fill="#000000" x="112.54740412870638" y="3" transform="rotate(180 112.54740412870638 0)" font-family="sans-serif">ACTED_IN</text></g><g class="relationship" transform="translate(459.30056088290445 137.05563375766465) rotate(529.5652494388427)"><path class="outline" fill="#A5ABB6" stroke="none" d="M 25 0.5 L 98.02794327060528 0.5 L 98.02794327060528 -0.5 L 25 -0.5 Z M 143.59044327060528 0.5 L 216.61838654121055 0.5 L 216.61838654121055 3.5 L 223.61838654121055 0 L 216.61838654121055 -3.5 L 216.61838654121055 -0.5 L 143.59044327060528 -0.5 Z"/><text text-anchor="middle" pointer-events="none" font-size="8px" fill="#000000" x="120.80919327060528" y="3" transform="rotate(180 120.80919327060528 0)" font-family="sans-serif">ACTED_IN</text></g><g class="relationship" transform="translate(181.4845070632314 -7.26551624858851) rotate(428.3938876623965)"><path class="outline" fill="#A5ABB6" stroke="none" d="M 25 0.5 L 37.309189737544216 0.5 L 37.309189737544216 -0.5 L 25 -0.5 Z M 84.19981473754422 0.5 L 96.50900447508843 0.5 L 96.50900447508843 3.5 L 103.50900447508843 0 L 96.50900447508843 -3.5 L 96.50900447508843 -0.5 L 84.19981473754422 -0.5 Z"/><text text-anchor="middle" pointer-events="none" font-size="8px" fill="#000000" x="60.754502237544216" y="3" font-family="sans-serif">DIRECTED</text></g><g class="relationship" transform="translate(6.718381719341693 242.00488225338103) rotate(328.1552030941278)"><path class="outline" fill="#A5ABB6" stroke="none" d="M 24.018736134675446,6.953439040707552 L 24.277555179777966,5.987513214418485 A 284.0398851510995 284.0398851510995 0 0 0 69.47647812686061,14.25099826537263 L 69.37678787074151,15.246016784212827 A 285.0398851510995 285.0398851510995 0 0 1 24.018736134675446,6.953439040707552 Z M 121.17544479106297,15.705219960643888 L 121.09341080570316,14.708590428046136 A 284.0398851510995 284.0398851510995 0 0 0 166.43173250982136,7.247732178653531 L 165.70677187148326,4.336644396936801 L 173.34509744021673,6.041338652817445 L 167.39834669427213,11.129182554275838 L 166.67338605593403,8.218094772559107 A 285.0398851510995 285.0398851510995 0 0 1 121.17544479106297,15.705219960643888"/><text text-anchor="middle" pointer-events="none" font-size="8px" fill="#000000" x="95.27009565988541" y="19.154757125027288" font-family="sans-serif">PRODUCED</text></g><g class="relationship" transform="translate(6.718381719341693 242.00488225338103) rotate(328.1552030941278)"><path class="outline" fill="#A5ABB6" stroke="none" d="M 24.018736134675446,-6.953439040707552 L 24.277555179777966,-5.987513214418485 A 284.0398851510995 284.0398851510995 0 0 1 77.43667198899502,-14.935595443688612 L 77.36500664866512,-15.933024177481343 A 285.0398851510995 285.0398851510995 0 0 0 24.018736134675446,-6.953439040707552 Z M 113.17630162028057,-16.250496895516676 L 113.12233087654936,-15.251954378234018 A 284.0398851510995 284.0398851510995 0 0 1 166.43173250982136,-7.247732178653531 L 165.70677187148326,-4.336644396936801 L 173.34509744021673,-6.041338652817445 L 167.39834669427213,-11.129182554275838 L 166.67338605593403,-8.218094772559107 A 285.0398851510995 285.0398851510995 0 0 0 113.17630162028057,-16.250496895516676"/><text text-anchor="middle" pointer-events="none" font-size="8px" fill="#000000" x="95.27009565988534" y="-13.154757125027288" font-family="sans-serif">WROTE</text></g><g class="relationship" transform="translate(6.718381719341693 242.00488225338103) rotate(329.6972877518334)"><path class="outline" fill="#A5ABB6" stroke="none" d="M 25 0.5 L 101.67032324364996 0.5 L 101.67032324364996 -0.5 L 25 -0.5 Z M 148.56094824364996 0.5 L 225.23127148729992 0.5 L 225.23127148729992 3.5 L 232.23127148729992 0 L 225.23127148729992 -3.5 L 225.23127148729992 -0.5 L 148.56094824364996 -0.5 Z"/><text text-anchor="middle" pointer-events="none" font-size="8px" fill="#000000" x="125.11563574364996" y="3" font-family="sans-serif">DIRECTED</text></g><g class="relationship" transform="translate(6.718381719341693 242.00488225338103) rotate(359.1391852960262)"><path class="outline" fill="#A5ABB6" stroke="none" d="M 25 0.5 L 68.09223168046326 0.5 L 68.09223168046326 -0.5 L 25 -0.5 Z M 114.98285668046326 0.5 L 158.07508836092651 0.5 L 158.07508836092651 3.5 L 165.07508836092651 0 L 158.07508836092651 -3.5 L 158.07508836092651 -0.5 L 114.98285668046326 -0.5 Z"/><text text-anchor="middle" pointer-events="none" font-size="8px" fill="#000000" x="91.53754418046326" y="3" font-family="sans-serif">DIRECTED</text></g><g class="relationship" transform="translate(6.718381719341693 242.00488225338103) rotate(361.5492823236093)"><path class="outline" fill="#A5ABB6" stroke="none" d="M 25 0.5 L 97.66381930318325 0.5 L 97.66381930318325 -0.5 L 25 -0.5 Z M 144.55444430318323 0.5 L 217.2182636063665 0.5 L 217.2182636063665 3.5 L 224.2182636063665 0 L 217.2182636063665 -3.5 L 217.2182636063665 -0.5 L 144.55444430318323 -0.5 Z"/><text text-anchor="middle" pointer-events="none" font-size="8px" fill="#000000" x="121.10913180318325" y="3" font-family="sans-serif">DIRECTED</text></g><g class="relationship" transform="translate(6.718381719341693 242.00488225338103) rotate(343.9349156824064)"><path class="outline" fill="#A5ABB6" stroke="none" d="M 25 0.5 L 81.3204308544704 0.5 L 81.3204308544704 -0.5 L 25 -0.5 Z M 128.2110558544704 0.5 L 184.5314867089408 0.5 L 184.5314867089408 3.5 L 191.5314867089408 0 L 184.5314867089408 -3.5 L 184.5314867089408 -0.5 L 128.2110558544704 -0.5 Z"/><text text-anchor="middle" pointer-events="none" font-size="8px" fill="#000000" x="104.7657433544704" y="3" font-family="sans-serif">DIRECTED</text></g><g class="relationship" transform="translate(274.65525089629926 177.0515050252874) rotate(201.4432645988386)"><path class="outline" fill="#A5ABB6" stroke="none" d="M 24.018736134675446,6.953439040707552 L 24.277555179777966,5.987513214418485 A 106.73928579724588 106.73928579724588 0 0 0 24.743723252689666,6.111294399397323 L 24.4892715599582,7.0783798847946 A 107.73928579724588 107.73928579724588 0 0 1 24.018736134675446,6.953439040707552 Z M 76.00156722999444,7.895028653880587 L 75.77789903090688,6.920363307868456 A 106.73928579724588 106.73928579724588 0 0 0 76.24775657332665,6.811421379355528 L 75.56354622321743,3.890487248498855 L 83.17730460367709,5.701752917576801 L 77.16003704013895,10.706000220497756 L 76.47582669002972,7.785066089641084 A 107.73928579724588 107.73928579724588 0 0 1 76.00156722999444,7.895028653880587"/><text text-anchor="middle" pointer-events="none" font-size="8px" fill="#000000" x="50.203813730291536" y="13.111092356261807" transform="rotate(180 50.203813730291536 10.111092356261807)" font-family="sans-serif">PRODUCED</text></g><g class="relationship" transform="translate(274.65525089629926 177.0515050252874) rotate(201.4432645988386)"><path class="outline" fill="#A5ABB6" stroke="none" d="M 24.018736134675446,-6.953439040707552 L 24.277555179777966,-5.987513214418485 A 106.73928579724588 106.73928579724588 0 0 1 32.51655683525466,-7.849146655666473 L 32.334925880684494,-8.832513421599671 A 107.73928579724588 107.73928579724588 0 0 0 24.018736134675446,-6.953439040707552 Z M 68.1042514147911,-9.399581444651446 L 67.95388345857006,-8.410951343075567 A 106.73928579724588 106.73928579724588 0 0 1 76.24775657332665,-6.811421379355528 L 75.56354622321743,-3.890487248498855 L 83.17730460367709,-5.701752917576801 L 77.16003704013895,-10.706000220497756 L 76.47582669002972,-7.785066089641084 A 107.73928579724588 107.73928579724588 0 0 0 68.1042514147911,-9.399581444651446"/><text text-anchor="middle" pointer-events="none" font-size="8px" fill="#000000" x="50.203813730291486" y="-7.111092356261793" transform="rotate(180 50.203813730291486 -10.111092356261793)" font-family="sans-serif">WROTE</text></g><g class="relationship" transform="translate(274.65525089629926 177.0515050252874) rotate(234.733430854728)"><path class="outline" fill="#A5ABB6" stroke="none" d="M 25 0.5 L 25.205715678886186 0.5 L 25.205715678886186 -0.5 L 25 -0.5 Z M 47.205715678886186 0.5 L 47.41143135777237 0.5 L 47.41143135777237 3.5 L 54.41143135777237 0 L 47.41143135777237 -3.5 L 47.41143135777237 -0.5 L 47.205715678886186 -0.5 Z"/><text text-anchor="middle" pointer-events="none" font-size="8px" fill="#000000" x="36.205715678886186" y="3" transform="rotate(180 36.205715678886186 0)" font-family="sans-serif">DI…</text></g><g class="relationship" transform="translate(274.65525089629926 177.0515050252874) rotate(501.43397632219524)"><path class="outline" fill="#A5ABB6" stroke="none" d="M 25 0.5 L 26.8591376944605 0.5 L 26.8591376944605 -0.5 L 25 -0.5 Z M 65.7497626944605 0.5 L 67.608900388921 0.5 L 67.608900388921 3.5 L 74.608900388921 0 L 67.608900388921 -3.5 L 67.608900388921 -0.5 L 65.7497626944605 -0.5 Z"/><text text-anchor="middle" pointer-events="none" font-size="8px" fill="#000000" x="46.3044501944605" y="3" transform="rotate(180 46.3044501944605 0)" font-family="sans-serif">DIREC…</text></g><g class="relationship" transform="translate(274.65525089629926 177.0515050252874) rotate(464.7013559972087)"><path class="outline" fill="#A5ABB6" stroke="none" d="M 25 0.5 L 33.55896437292039 0.5 L 33.55896437292039 -0.5 L 25 -0.5 Z M 33.55896437292039 0.5 L 42.117928745840786 0.5 L 42.117928745840786 3.5 L 49.117928745840786 0 L 42.117928745840786 -3.5 L 42.117928745840786 -0.5 L 33.55896437292039 -0.5 Z"/><text text-anchor="middle" pointer-events="none" font-size="8px" fill="#000000" x="33.55896437292039" y="3" transform="rotate(180 33.55896437292039 0)" font-family="sans-serif"/></g><g class="relationship" transform="translate(274.65525089629926 177.0515050252874) rotate(535.1941913830655)"><path class="outline" fill="#A5ABB6" stroke="none" d="M 25 0.5 L 26.53628477888287 0.5 L 26.53628477888287 -0.5 L 25 -0.5 Z M 26.53628477888287 0.5 L 28.07256955776574 0.5 L 28.07256955776574 3.5 L 35.07256955776574 0 L 28.07256955776574 -3.5 L 28.07256955776574 -0.5 L 26.53628477888287 -0.5 Z"/><text text-anchor="middle" pointer-events="none" font-size="8px" fill="#000000" x="26.53628477888287" y="3" transform="rotate(180 26.53628477888287 0)" font-family="sans-serif"/></g><g class="relationship" transform="translate(58.41816656507752 77.62449332903176) rotate(387.3643250476669)"><path class="outline" fill="#A5ABB6" stroke="none" d="M 25 0.5 L 38.453209429615995 0.5 L 38.453209429615995 -0.5 L 25 -0.5 Z M 85.343834429616 0.5 L 98.79704385923199 0.5 L 98.79704385923199 3.5 L 105.79704385923199 0 L 98.79704385923199 -3.5 L 98.79704385923199 -0.5 L 85.343834429616 -0.5 Z"/><text text-anchor="middle" pointer-events="none" font-size="8px" fill="#000000" x="61.898521929615995" y="3" font-family="sans-serif">DIRECTED</text></g></g><g class="layer nodes"><g class="node" transform="translate(459.30056088290445,137.05563375766465)"><circle class="outline" cx="0" cy="0" r="25" fill="#F79767" stroke="#f36924" stroke-width="2px"/><text text-anchor="middle" pointer-events="none" font-family="sans-serif" dy="1.5625" font-size="25" fill="#FFFFFF"/><text text-anchor="middle" pointer-events="none" font-family="sans-serif" dy="1.5625" font-size="25" fill="#FFFFFF"/><text text-anchor="middle" pointer-events="none" y="0" font-size="10px" fill="#FFFFFF" font-family="sans-serif"> Hugo</text><text text-anchor="middle" pointer-events="none" y="10" font-size="10px" fill="#FFFFFF" font-family="sans-serif"> Weaving</text></g><g class="node" transform="translate(228.804573254608,112.21408689279308)"><circle class="outline" cx="0" cy="0" r="25" fill="#57C7E3" stroke="#23b3d7" stroke-width="2px"/><text text-anchor="middle" pointer-events="none" font-family="sans-serif" dy="1.5625" font-size="25" fill="#FFFFFF"/><text text-anchor="middle" pointer-events="none" font-family="sans-serif" dy="1.5625" font-size="25" fill="#FFFFFF"/><text text-anchor="middle" pointer-events="none" y="0" font-size="10px" fill="#FFFFFF" font-family="sans-serif"> Cloud</text><text text-anchor="middle" pointer-events="none" y="10" font-size="10px" fill="#FFFFFF" font-family="sans-serif"> Atlas</text></g><g class="node" transform="translate(181.4845070632314,-7.26551624858851)"><circle class="outline" cx="0" cy="0" r="25" fill="#F79767" stroke="#f36924" stroke-width="2px"/><text text-anchor="middle" pointer-events="none" font-family="sans-serif" dy="1.5625" font-size="25" fill="#FFFFFF"/><text text-anchor="middle" pointer-events="none" font-family="sans-serif" dy="1.5625" font-size="25" fill="#FFFFFF"/><text text-anchor="middle" pointer-events="none" y="0" font-size="10px" fill="#FFFFFF" font-family="sans-serif"> Tom</text><text text-anchor="middle" pointer-events="none" y="10" font-size="10px" fill="#FFFFFF" font-family="sans-serif"> Tykwer</text></g><g class="node" transform="translate(6.718381719341693,242.00488225338103)"><circle class="outline" cx="0" cy="0" r="25" fill="#F79767" stroke="#f36924" stroke-width="2px"/><text text-anchor="middle" pointer-events="none" font-family="sans-serif" dy="1.5625" font-size="25" fill="#FFFFFF"/><text text-anchor="middle" pointer-events="none" font-family="sans-serif" dy="1.5625" font-size="25" fill="#FFFFFF"/><text text-anchor="middle" pointer-events="none" y="0" font-size="10px" fill="#FFFFFF" font-family="sans-serif"> Lana</text><text text-anchor="middle" pointer-events="none" y="10" font-size="10px" fill="#FFFFFF" font-family="sans-serif"> Wacho…</text></g><g class="node" transform="translate(274.65525089629926,177.0515050252874)"><circle class="outline" cx="0" cy="0" r="25" fill="#F79767" stroke="#f36924" stroke-width="2px"/><text text-anchor="middle" pointer-events="none" font-family="sans-serif" dy="1.5625" font-size="25" fill="#FFFFFF"/><text text-anchor="middle" pointer-events="none" font-family="sans-serif" dy="1.5625" font-size="25" fill="#FFFFFF"/><text text-anchor="middle" pointer-events="none" y="0" font-size="10px" fill="#FFFFFF" font-family="sans-serif"> Lilly</text><text text-anchor="middle" pointer-events="none" y="10" font-size="10px" fill="#FFFFFF" font-family="sans-serif"> Wacho…</text></g><g class="node" transform="translate(174.57925067238244,137.74494925985024)"><circle class="outline" cx="0" cy="0" r="25" fill="#57C7E3" stroke="#23b3d7" stroke-width="2px"/><text text-anchor="middle" pointer-events="none" font-family="sans-serif" dy="1.5625" font-size="25" fill="#FFFFFF"/><text text-anchor="middle" pointer-events="none" font-family="sans-serif" dy="1.5625" font-size="25" fill="#FFFFFF"/><text text-anchor="middle" pointer-events="none" y="0" font-size="10px" fill="#FFFFFF" font-family="sans-serif"> V for</text><text text-anchor="middle" pointer-events="none" y="10" font-size="10px" fill="#FFFFFF" font-family="sans-serif"> Vendetta</text></g><g class="node" transform="translate(58.41816656507752,77.62449332903176)"><circle class="outline" cx="0" cy="0" r="25" fill="#F79767" stroke="#f36924" stroke-width="2px"/><text text-anchor="middle" pointer-events="none" font-family="sans-serif" dy="1.5625" font-size="25" fill="#FFFFFF"/><text text-anchor="middle" pointer-events="none" font-family="sans-serif" dy="1.5625" font-size="25" fill="#FFFFFF"/><text text-anchor="middle" pointer-events="none" y="0" font-size="10px" fill="#FFFFFF" font-family="sans-serif"> James</text><text text-anchor="middle" pointer-events="none" y="10" font-size="10px" fill="#FFFFFF" font-family="sans-serif"> Marshall</text></g><g class="node" transform="translate(196.77201840940234,239.1492918947238)"><circle class="outline" cx="0" cy="0" r="25" fill="#57C7E3" stroke="#23b3d7" stroke-width="2px"/><text text-anchor="middle" pointer-events="none" font-family="sans-serif" dy="1.5625" font-size="25" fill="#FFFFFF"/><text text-anchor="middle" pointer-events="none" font-family="sans-serif" dy="1.5625" font-size="25" fill="#FFFFFF"/><text text-anchor="middle" pointer-events="none" font-family="sans-serif" dy="1.5625" font-size="25" fill="#FFFFFF"/><text text-anchor="middle" pointer-events="none" y="-5" font-size="10px" fill="#FFFFFF" font-family="sans-serif"> The</text><text text-anchor="middle" pointer-events="none" y="5" font-size="10px" fill="#FFFFFF" font-family="sans-serif"> Matrix</text><text text-anchor="middle" pointer-events="none" y="15" font-size="10px" fill="#FFFFFF" font-family="sans-serif"> Revol…</text></g><g class="node" transform="translate(255.84554094189284,248.7429422615755)"><circle class="outline" cx="0" cy="0" r="25" fill="#57C7E3" stroke="#23b3d7" stroke-width="2px"/><text text-anchor="middle" pointer-events="none" font-family="sans-serif" dy="1.5625" font-size="25" fill="#FFFFFF"/><text text-anchor="middle" pointer-events="none" font-family="sans-serif" dy="1.5625" font-size="25" fill="#FFFFFF"/><text text-anchor="middle" pointer-events="none" font-family="sans-serif" dy="1.5625" font-size="25" fill="#FFFFFF"/><text text-anchor="middle" pointer-events="none" y="-5" font-size="10px" fill="#FFFFFF" font-family="sans-serif"> The</text><text text-anchor="middle" pointer-events="none" y="5" font-size="10px" fill="#FFFFFF" font-family="sans-serif"> Matrix</text><text text-anchor="middle" pointer-events="none" y="15" font-size="10px" fill="#FFFFFF" font-family="sans-serif"> Reloa…</text></g><g class="node" transform="translate(214.79387421149065,182.08431683103314)"><circle class="outline" cx="0" cy="0" r="25" fill="#57C7E3" stroke="#23b3d7" stroke-width="2px"/><text text-anchor="middle" pointer-events="none" font-family="sans-serif" dy="1.5625" font-size="25" fill="#FFFFFF"/><text text-anchor="middle" pointer-events="none" font-family="sans-serif" dy="1.5625" font-size="25" fill="#FFFFFF"/><text text-anchor="middle" pointer-events="none" y="0" font-size="10px" fill="#FFFFFF" font-family="sans-serif"> The</text><text text-anchor="middle" pointer-events="none" y="10" font-size="10px" fill="#FFFFFF" font-family="sans-serif"> Matrix</text></g></g></svg>