<svg xmlns="http://www.w3.org/2000/svg" width="478.1075744628906" height="482.13214111328125" viewBox="-182.2392578125 -140.366455078125 478.1075744628906 482.13214111328125"><title>Neo4j Graph Visualization</title><desc>Created using Neo4j (http://www.neo4j.com/)</desc><g class="layer relationships"><g class="relationship" transform="translate(46.55377834893879 94.16480747834035) rotate(404.95833944833174)"><path class="outline" fill="#A5ABB6" stroke="none" d="M 25 0.5 L 42.252607055262686 0.5 L 42.252607055262686 -0.5 L 25 -0.5 Z M 87.81510705526269 0.5 L 105.06771411052537 0.5 L 105.06771411052537 3.5 L 112.06771411052537 0 L 105.06771411052537 -3.5 L 105.06771411052537 -0.5 L 87.81510705526269 -0.5 Z"/><text text-anchor="middle" pointer-events="none" font-size="8px" fill="#000000" x="65.03385705526269" y="3" font-family="sans-serif">ACTED_IN</text></g><g class="relationship" transform="translate(46.55377834893879 94.16480747834035) rotate(318.8173128232765)"><path class="outline" fill="#A5ABB6" stroke="none" d="M 25 0.5 L 41.08198257762092 0.5 L 41.08198257762092 -0.5 L 25 -0.5 Z M 86.64448257762092 0.5 L 102.72646515524184 0.5 L 102.72646515524184 3.5 L 109.72646515524184 0 L 102.72646515524184 -3.5 L 102.72646515524184 -0.5 L 86.64448257762092 -0.5 Z"/><text text-anchor="middle" pointer-events="none" font-size="8px" fill="#000000" x="63.86323257762092" y="3" font-family="sans-serif">ACTED_IN</text></g><g class="relationship" transform="translate(46.55377834893879 94.16480747834035) rotate(228.45585877351743)"><path class="outline" fill="#A5ABB6" stroke="none" d="M 25 0.5 L 47.095911390033194 0.5 L 47.095911390033194 -0.5 L 25 -0.5 Z M 92.6584113900332 0.5 L 114.75432278006639 0.5 L 114.75432278006639 3.5 L 121.75432278006639 0 L 114.75432278006639 -3.5 L 114.75432278006639 -0.5 L 92.6584113900332 -0.5 Z"/><text text-anchor="middle" pointer-events="none" font-size="8px" fill="#000000" x="69.8771613900332" y="3" transform="rotate(180 69.8771613900332 0)" font-family="sans-serif">ACTED_IN</text></g><g class="relationship" transform="translate(46.55377834893879 94.16480747834035) rotate(516.6286475654284)"><path class="outline" fill="#A5ABB6" stroke="none" d="M 25 0.5 L 49.35511561061891 0.5 L 49.35511561061891 -0.5 L 25 -0.5 Z M 94.91761561061891 0.5 L 119.27273122123782 0.5 L 119.27273122123782 3.5 L 126.27273122123782 0 L 119.27273122123782 -3.5 L 119.27273122123782 -0.5 L 94.91761561061891 -0.5 Z"/><text text-anchor="middle" pointer-events="none" font-size="8px" fill="#000000" x="72.13636561061891" y="3" transform="rotate(180 72.13636561061891 0)" font-family="sans-serif">ACTED_IN</text></g><g class="relationship" transform="translate(46.55377834893879 94.16480747834035) rotate(495.9644328002839)"><path class="outline" fill="#A5ABB6" stroke="none" d="M 25 0.5 L 30.90757701554388 0.5 L 30.90757701554388 -0.5 L 25 -0.5 Z M 76.47007701554388 0.5 L 82.37765403108776 0.5 L 82.37765403108776 3.5 L 89.37765403108776 0 L 82.37765403108776 -3.5 L 82.37765403108776 -0.5 L 76.47007701554388 -0.5 Z"/><text text-anchor="middle" pointer-events="none" font-size="8px" fill="#000000" x="53.68882701554388" y="3" transform="rotate(180 53.68882701554388 0)" font-family="sans-serif">ACTED_IN</text></g><g class="relationship" transform="translate(140.3737372716445 312.76569166073614) rotate(271.49241244510176)"><path class="outline" fill="#A5ABB6" stroke="none" d="M 25 0.5 L 34.614343152095785 0.5 L 34.614343152095785 -0.5 L 25 -0.5 Z M 80.17684315209578 0.5 L 89.79118630419157 0.5 L 89.79118630419157 3.5 L 96.79118630419157 0 L 89.79118630419157 -3.5 L 89.79118630419157 -0.5 L 80.17684315209578 -0.5 Z"/><text text-anchor="middle" pointer-events="none" font-size="8px" fill="#000000" x="57.395593152095785" y="3" font-family="sans-serif">ACTED_IN</text></g><g class="relationship" transform="translate(266.8683185629824 197.84887549829207) rotate(183.17140120147633)"><path class="outline" fill="#A5ABB6" stroke="none" d="M 25 0.5 L 35.47462031938606 0.5 L 35.47462031938606 -0.5 L 25 -0.5 Z M 81.03712031938606 0.5 L 91.51174063877212 0.5 L 91.51174063877212 3.5 L 98.51174063877212 0 L 91.51174063877212 -3.5 L 91.51174063877212 -0.5 L 81.03712031938606 -0.5 Z"/><text text-anchor="middle" pointer-events="none" font-size="8px" fill="#000000" x="58.25587031938606" y="3" transform="rotate(180 58.25587031938606 0)" font-family="sans-serif">ACTED_IN</text></g><g class="relationship" transform="translate(230.53600559513296 280.6869606255033) rotate(225.86940804109508)"><path class="outline" fill="#A5ABB6" stroke="none" d="M 25 0.5 L 36.185182329006786 0.5 L 36.185182329006786 -0.5 L 25 -0.5 Z M 81.74768232900678 0.5 L 92.93286465801357 0.5 L 92.93286465801357 3.5 L 99.93286465801357 0 L 92.93286465801357 -3.5 L 92.93286465801357 -0.5 L 81.74768232900678 -0.5 Z"/><text text-anchor="middle" pointer-events="none" font-size="8px" fill="#000000" x="58.966432329006786" y="3" transform="rotate(180 58.966432329006786 0)" font-family="sans-serif">ACTED_IN</text></g><g class="relationship" transform="translate(263.50146770907145 44.09443373551467) rotate(198.49071450495313)"><path class="outline" fill="#A5ABB6" stroke="none" d="M 25 0.5 L 34.639097901829146 0.5 L 34.639097901829146 -0.5 L 25 -0.5 Z M 80.20159790182915 0.5 L 89.84069580365829 0.5 L 89.84069580365829 3.5 L 96.84069580365829 0 L 89.84069580365829 -3.5 L 89.84069580365829 -0.5 L 80.20159790182915 -0.5 Z"/><text text-anchor="middle" pointer-events="none" font-size="8px" fill="#000000" x="57.420347901829146" y="3" transform="rotate(180 57.420347901829146 0)" font-family="sans-serif">ACTED_IN</text></g><g class="relationship" transform="translate(264.84969424124967 -40.36339271345267) rotate(518.5984056436406)"><path class="outline" fill="#A5ABB6" stroke="none" d="M 25 0.5 L 36.49703746669049 0.5 L 36.49703746669049 -0.5 L 25 -0.5 Z M 82.0595374666905 0.5 L 93.55657493338099 0.5 L 93.55657493338099 3.5 L 100.55657493338099 0 L 93.55657493338099 -3.5 L 93.55657493338099 -0.5 L 82.0595374666905 -0.5 Z"/><text text-anchor="middle" pointer-events="none" font-size="8px" fill="#000000" x="59.27828746669049" y="3" transform="rotate(180 59.27828746669049 0)" font-family="sans-serif">ACTED_IN</text></g><g class="relationship" transform="translate(112.30383470534272 -111.36645062936601) rotate(433.0305929435875)"><path class="outline" fill="#A5ABB6" stroke="none" d="M 25 0.5 L 34.787117160488805 0.5 L 34.787117160488805 -0.5 L 25 -0.5 Z M 80.3496171604888 0.5 L 90.13673432097761 0.5 L 90.13673432097761 3.5 L 97.13673432097761 0 L 90.13673432097761 -3.5 L 90.13673432097761 -0.5 L 80.3496171604888 -0.5 Z"/><text text-anchor="middle" pointer-events="none" font-size="8px" fill="#000000" x="57.568367160488805" y="3" font-family="sans-serif">ACTED_IN</text></g><g class="relationship" transform="translate(204.54870571645696 -104.52090122276948) rotate(477.23265026191063)"><path class="outline" fill="#A5ABB6" stroke="none" d="M 25 0.5 L 35.560244482576515 0.5 L 35.560244482576515 -0.5 L 25 -0.5 Z M 81.12274448257651 0.5 L 91.68298896515303 0.5 L 91.68298896515303 3.5 L 98.68298896515303 0 L 91.68298896515303 -3.5 L 91.68298896515303 -0.5 L 81.12274448257651 -0.5 Z"/><text text-anchor="middle" pointer-events="none" font-size="8px" fill="#000000" x="58.341494482576515" y="3" transform="rotate(180 58.341494482576515 0)" font-family="sans-serif">ACTED_IN</text></g><g class="relationship" transform="translate(-98.84044607388824 59.835603875139924) rotate(302.4800808978897)"><path class="outline" fill="#A5ABB6" stroke="none" d="M 25 0.5 L 26.254794454771414 0.5 L 26.254794454771414 -0.5 L 25 -0.5 Z M 56.254794454771414 0.5 L 57.50958890954283 0.5 L 57.50958890954283 3.5 L 64.50958890954283 0 L 57.50958890954283 -3.5 L 57.50958890954283 -0.5 L 56.254794454771414 -0.5 Z"/><text text-anchor="middle" pointer-events="none" font-size="8px" fill="#000000" x="41.254794454771414" y="3" font-family="sans-serif">ACT…</text></g><g class="relationship" transform="translate(-98.84044607388824 59.835603875139924) rotate(446.0385386163621)"><path class="outline" fill="#A5ABB6" stroke="none" d="M 25 0.5 L 26.113712950117822 0.5 L 26.113712950117822 -0.5 L 25 -0.5 Z M 61.44965045011782 0.5 L 62.563363400235644 0.5 L 62.563363400235644 3.5 L 69.56336340023564 0 L 62.563363400235644 -3.5 L 62.563363400235644 -0.5 L 61.44965045011782 -0.5 Z"/><text text-anchor="middle" pointer-events="none" font-size="8px" fill="#000000" x="43.78168170011782" y="3" font-family="sans-serif">ACTE…</text></g><g class="relationship" transform="translate(-98.84044607388824 59.835603875139924) rotate(420.9737722339226)"><path class="outline" fill="#A5ABB6" stroke="none" d="M 25 0.5 L 38.81136107632835 0.5 L 38.81136107632835 -0.5 L 25 -0.5 Z M 84.37386107632835 0.5 L 98.1852221526567 0.5 L 98.1852221526567 3.5 L 105.1852221526567 0 L 98.1852221526567 -3.5 L 98.1852221526567 -0.5 L 84.37386107632835 -0.5 Z"/><text text-anchor="middle" pointer-events="none" font-size="8px" fill="#000000" x="61.59261107632835" y="3" font-family="sans-serif">ACTED_IN</text></g><g class="relationship" transform="translate(-24.217292234261315 73.39721904243473) rotate(253.3982107779902)"><path class="outline" fill="#A5ABB6" stroke="none" d="M 25 0.5 L 25.304264976554066 0.5 L 25.304264976554066 -0.5 L 25 -0.5 Z M 60.640202476554066 0.5 L 60.94446745310813 0.5 L 60.94446745310813 3.5 L 67.94446745310813 0 L 60.94446745310813 -3.5 L 60.94446745310813 -0.5 L 60.640202476554066 -0.5 Z"/><text text-anchor="middle" pointer-events="none" font-size="8px" fill="#000000" x="42.972233726554066" y="3" transform="rotate(180 42.972233726554066 0)" font-family="sans-serif">ACTE…</text></g><g class="relationship" transform="translate(-24.217292234261315 73.39721904243473) rotate(490.1293087296113)"><path class="outline" fill="#A5ABB6" stroke="none" d="M 25 0.5 L 26.54158380987075 0.5 L 26.54158380987075 -0.5 L 25 -0.5 Z M 72.10408380987076 0.5 L 73.6456676197415 0.5 L 73.6456676197415 3.5 L 80.6456676197415 0 L 73.6456676197415 -3.5 L 73.6456676197415 -0.5 L 72.10408380987076 -0.5 Z"/><text text-anchor="middle" pointer-events="none" font-size="8px" fill="#000000" x="49.32283380987075" y="3" transform="rotate(180 49.32283380987075 0)" font-family="sans-serif">ACTED_IN</text></g><g class="relationship" transform="translate(-24.217292234261315 73.39721904243473) rotate(456.51773091314584)"><path class="outline" fill="#A5ABB6" stroke="none" d="M 25 0.5 L 26.405528772329525 0.5 L 26.405528772329525 -0.5 L 25 -0.5 Z M 67.51881002232952 0.5 L 68.92433879465905 0.5 L 68.92433879465905 3.5 L 75.92433879465905 0 L 68.92433879465905 -3.5 L 68.92433879465905 -0.5 L 67.51881002232952 -0.5 Z"/><text text-anchor="middle" pointer-events="none" font-size="8px" fill="#000000" x="46.962169397329525" y="3" transform="rotate(180 46.962169397329525 0)" font-family="sans-serif">ACTED…</text></g><g class="relationship" transform="translate(-153.23925101494777 84.91596658768877) rotate(315.5297079739237)"><path class="outline" fill="#A5ABB6" stroke="none" d="M 25 0.5 L 45.5125042514001 0.5 L 45.5125042514001 -0.5 L 25 -0.5 Z M 91.0750042514001 0.5 L 111.5875085028002 0.5 L 111.5875085028002 3.5 L 118.5875085028002 0 L 111.5875085028002 -3.5 L 111.5875085028002 -0.5 L 91.0750042514001 -0.5 Z"/><text text-anchor="middle" pointer-events="none" font-size="8px" fill="#000000" x="68.2937542514001" y="3" font-family="sans-serif">ACTED_IN</text></g><g class="relationship" transform="translate(-153.23925101494777 84.91596658768877) rotate(408.6589640965018)"><path class="outline" fill="#A5ABB6" stroke="none" d="M 25 0.5 L 27.62271758881453 0.5 L 27.62271758881453 -0.5 L 25 -0.5 Z M 57.62271758881453 0.5 L 60.24543517762906 0.5 L 60.24543517762906 3.5 L 67.24543517762906 0 L 60.24543517762906 -3.5 L 60.24543517762906 -0.5 L 57.62271758881453 -0.5 Z"/><text text-anchor="middle" pointer-events="none" font-size="8px" fill="#000000" x="42.62271758881453" y="3" font-family="sans-serif">ACT…</text></g><g class="relationship" transform="translate(-153.23925101494777 84.91596658768877) rotate(397.0500072147698)"><path class="outline" fill="#A5ABB6" stroke="none" d="M 25 0.5 L 47.37148959985059 0.5 L 47.37148959985059 -0.5 L 25 -0.5 Z M 92.93398959985059 0.5 L 115.30547919970118 0.5 L 115.30547919970118 3.5 L 122.30547919970118 0 L 115.30547919970118 -3.5 L 115.30547919970118 -0.5 L 92.93398959985059 -0.5 Z"/><text text-anchor="middle" pointer-events="none" font-size="8px" fill="#000000" x="70.15273959985059" y="3" font-family="sans-serif">ACTED_IN</text></g><g class="relationship" transform="translate(-63.215945219414166 293.437808915877) rotate(282.95090006468274)"><path class="outline" fill="#A5ABB6" stroke="none" d="M 25 0.5 L 35.16609183248947 0.5 L 35.16609183248947 -0.5 L 25 -0.5 Z M 80.72859183248947 0.5 L 90.89468366497894 0.5 L 90.89468366497894 3.5 L 97.89468366497894 0 L 90.89468366497894 -3.5 L 90.89468366497894 -0.5 L 80.72859183248947 -0.5 Z"/><text text-anchor="middle" pointer-events="none" font-size="8px" fill="#000000" x="57.94734183248947" y="3" font-family="sans-serif">ACTED_IN</text></g></g><g class="layer nodes"><g class="node" transform="translate(46.55377834893879,94.16480747834035)"><circle class="outline" cx="0" cy="0" r="25" fill="#F79767" stroke="#f36924" stroke-width="2px"/><text text-anchor="middle" pointer-events="none" font-family="sans-serif" dy="1.5625" font-size="25" fill="#FFFFFF"/><text text-anchor="middle" pointer-events="none" font-family="sans-serif" dy="1.5625" font-size="25" fill="#FFFFFF"/><text text-anchor="middle" pointer-events="none" y="0" font-size="10px" fill="#FFFFFF" font-family="sans-serif"> Hugo</text><text text-anchor="middle" pointer-events="none" y="10" font-size="10px" fill="#FFFFFF" font-family="sans-serif"> Weaving</text></g><g class="node" transform="translate(143.54573581811707,191.0158190258809)"><circle class="outline" cx="0" cy="0" r="25" fill="#57C7E3" stroke="#23b3d7" stroke-width="2px"/><text text-anchor="middle" pointer-events="none" font-family="sans-serif" dy="1.5625" font-size="25" fill="#FFFFFF"/><text text-anchor="middle" pointer-events="none" font-family="sans-serif" dy="1.5625" font-size="25" fill="#FFFFFF"/><text text-anchor="middle" pointer-events="none" y="0" font-size="10px" fill="#FFFFFF" font-family="sans-serif"> Cloud</text><text text-anchor="middle" pointer-events="none" y="10" font-size="10px" fill="#FFFFFF" font-family="sans-serif"> Atlas</text></g><g class="node" transform="translate(140.3737372716445,312.76569166073614)"><circle class="outline" cx="0" cy="0" r="25" fill="#F79767" stroke="#f36924" stroke-width="2px"/><text text-anchor="middle" pointer-events="none" font-family="sans-serif" dy="1.5625" font-size="25" fill="#FFFFFF"/><text text-anchor="middle" pointer-events="none" font-family="sans-serif" dy="1.5625" font-size="25" fill="#FFFFFF"/><text text-anchor="middle" pointer-events="none" y="0" font-size="10px" fill="#FFFFFF" font-family="sans-serif"> Tom</text><text text-anchor="middle" pointer-events="none" y="10" font-size="10px" fill="#FFFFFF" font-family="sans-serif"> Hanks</text></g><g class="node" transform="translate(266.8683185629824,197.84887549829207)"><circle class="outline" cx="0" cy="0" r="25" fill="#F79767" stroke="#f36924" stroke-width="2px"/><text text-anchor="middle" pointer-events="none" font-family="sans-serif" dy="1.5625" font-size="25" fill="#FFFFFF"/><text text-anchor="middle" pointer-events="none" font-family="sans-serif" dy="1.5625" font-size="25" fill="#FFFFFF"/><text text-anchor="middle" pointer-events="none" y="0" font-size="10px" fill="#FFFFFF" font-family="sans-serif"> Jim</text><text text-anchor="middle" pointer-events="none" y="10" font-size="10px" fill="#FFFFFF" font-family="sans-serif"> Broadb…</text></g><g class="node" transform="translate(230.53600559513296,280.6869606255033)"><circle class="outline" cx="0" cy="0" r="25" fill="#F79767" stroke="#f36924" stroke-width="2px"/><text text-anchor="middle" pointer-events="none" font-family="sans-serif" dy="1.5625" font-size="25" fill="#FFFFFF"/><text text-anchor="middle" pointer-events="none" font-family="sans-serif" dy="1.5625" font-size="25" fill="#FFFFFF"/><text text-anchor="middle" pointer-events="none" y="0" font-size="10px" fill="#FFFFFF" font-family="sans-serif"> Halle</text><text text-anchor="middle" pointer-events="none" y="10" font-size="10px" fill="#FFFFFF" font-family="sans-serif"> Berry</text></g><g class="node" transform="translate(147.95078979380057,5.452539537107089)"><circle class="outline" cx="0" cy="0" r="25" fill="#57C7E3" stroke="#23b3d7" stroke-width="2px"/><text text-anchor="middle" pointer-events="none" font-family="sans-serif" dy="1.5625" font-size="25" fill="#FFFFFF"/><text text-anchor="middle" pointer-events="none" font-family="sans-serif" dy="1.5625" font-size="25" fill="#FFFFFF"/><text text-anchor="middle" pointer-events="none" y="0" font-size="10px" fill="#FFFFFF" font-family="sans-serif"> V for</text><text text-anchor="middle" pointer-events="none" y="10" font-size="10px" fill="#FFFFFF" font-family="sans-serif"> Vendetta</text></g><g class="node" transform="translate(263.50146770907145,44.09443373551467)"><circle class="outline" cx="0" cy="0" r="25" fill="#F79767" stroke="#f36924" stroke-width="2px"/><text text-anchor="middle" pointer-events="none" font-family="sans-serif" dy="1.5625" font-size="25" fill="#FFFFFF"/><text text-anchor="middle" pointer-events="none" y="5" font-size="10px" fill="#FFFFFF" font-family="sans-serif"> John Hurt</text></g><g class="node" transform="translate(264.84969424124967,-40.36339271345267)"><circle class="outline" cx="0" cy="0" r="25" fill="#F79767" stroke="#f36924" stroke-width="2px"/><text text-anchor="middle" pointer-events="none" font-family="sans-serif" dy="1.5625" font-size="25" fill="#FFFFFF"/><text text-anchor="middle" pointer-events="none" font-family="sans-serif" dy="1.5625" font-size="25" fill="#FFFFFF"/><text text-anchor="middle" pointer-events="none" y="0" font-size="10px" fill="#FFFFFF" font-family="sans-serif"> Stephen</text><text text-anchor="middle" pointer-events="none" y="10" font-size="10px" fill="#FFFFFF" font-family="sans-serif"> Rea</text></g><g class="node" transform="translate(112.30383470534272,-111.36645062936601)"><circle class="outline" cx="0" cy="0" r="25" fill="#F79767" stroke="#f36924" stroke-width="2px"/><text text-anchor="middle" pointer-events="none" font-family="sans-serif" dy="1.5625" font-size="25" fill="#FFFFFF"/><text text-anchor="middle" pointer-events="none" font-family="sans-serif" dy="1.5625" font-size="25" fill="#FFFFFF"/><text text-anchor="middle" pointer-events="none" y="0" font-size="10px" fill="#FFFFFF" font-family="sans-serif"> Natalie</text><text text-anchor="middle" pointer-events="none" y="10" font-size="10px" fill="#FFFFFF" font-family="sans-serif"> Portman</text></g><g class="node" transform="translate(204.54870571645696,-104.52090122276948)"><circle class="outline" cx="0" cy="0" r="25" fill="#F79767" stroke="#f36924" stroke-width="2px"/><text text-anchor="middle" pointer-events="none" font-family="sans-serif" dy="1.5625" font-size="25" fill="#FFFFFF"/><text text-anchor="middle" pointer-events="none" y="5" font-size="10px" fill="#FFFFFF" font-family="sans-serif"> Ben Miles</text></g><g class="node" transform="translate(-50.773226873209076,-15.67273304913099)"><circle class="outline" cx="0" cy="0" r="25" fill="#57C7E3" stroke="#23b3d7" stroke-width="2px"/><text text-anchor="middle" pointer-events="none" font-family="sans-serif" dy="1.5625" font-size="25" fill="#FFFFFF"/><text text-anchor="middle" pointer-events="none" font-family="sans-serif" dy="1.5625" font-size="25" fill="#FFFFFF"/><text text-anchor="middle" pointer-events="none" font-family="sans-serif" dy="1.5625" font-size="25" fill="#FFFFFF"/><text text-anchor="middle" pointer-events="none" y="-5" font-size="10px" fill="#FFFFFF" font-family="sans-serif"> The</text><text text-anchor="middle" pointer-events="none" y="5" font-size="10px" fill="#FFFFFF" font-family="sans-serif"> Matrix</text><text text-anchor="middle" pointer-events="none" y="15" font-size="10px" fill="#FFFFFF" font-family="sans-serif"> Revol…</text></g><g class="node" transform="translate(-98.84044607388824,59.835603875139924)"><circle class="outline" cx="0" cy="0" r="25" fill="#F79767" stroke="#f36924" stroke-width="2px"/><text text-anchor="middle" pointer-events="none" font-family="sans-serif" dy="1.5625" font-size="25" fill="#FFFFFF"/><text text-anchor="middle" pointer-events="none" font-family="sans-serif" dy="1.5625" font-size="25" fill="#FFFFFF"/><text text-anchor="middle" pointer-events="none" y="0" font-size="10px" fill="#FFFFFF" font-family="sans-serif"> Laurence</text><text text-anchor="middle" pointer-events="none" y="10" font-size="10px" fill="#FFFFFF" font-family="sans-serif"> Fishbur…</text></g><g class="node" transform="translate(-24.217292234261315,73.39721904243473)"><circle class="outline" cx="0" cy="0" r="25" fill="#F79767" stroke="#f36924" stroke-width="2px"/><text text-anchor="middle" pointer-events="none" font-family="sans-serif" dy="1.5625" font-size="25" fill="#FFFFFF"/><text text-anchor="middle" pointer-events="none" y="5" font-size="10px" fill="#FFFFFF" font-family="sans-serif"> Carrie-A…</text></g><g class="node" transform="translate(-153.23925101494777,84.91596658768877)"><circle class="outline" cx="0" cy="0" r="25" fill="#F79767" stroke="#f36924" stroke-width="2px"/><text text-anchor="middle" pointer-events="none" font-family="sans-serif" dy="1.5625" font-size="25" fill="#FFFFFF"/><text text-anchor="middle" pointer-events="none" font-family="sans-serif" dy="1.5625" font-size="25" fill="#FFFFFF"/><text text-anchor="middle" pointer-events="none" y="0" font-size="10px" fill="#FFFFFF" font-family="sans-serif"> Keanu</text><text text-anchor="middle" pointer-events="none" y="10" font-size="10px" fill="#FFFFFF" font-family="sans-serif"> Reeves</text></g><g class="node" transform="translate(-92.30749159741984,154.17303124823198)"><circle class="outline" cx="0" cy="0" r="25" fill="#57C7E3" stroke="#23b3d7" stroke-width="2px"/><text text-anchor="middle" pointer-events="none" font-family="sans-serif" dy="1.5625" font-size="25" fill="#FFFFFF"/><text text-anchor="middle" pointer-events="none" font-family="sans-serif" dy="1.5625" font-size="25" fill="#FFFFFF"/><text text-anchor="middle" pointer-events="none" font-family="sans-serif" dy="1.5625" font-size="25" fill="#FFFFFF"/><text text-anchor="middle" pointer-events="none" y="-5" font-size="10px" fill="#FFFFFF" font-family="sans-serif"> The</text><text text-anchor="middle" pointer-events="none" y="5" font-size="10px" fill="#FFFFFF" font-family="sans-serif"> Matrix</text><text text-anchor="middle" pointer-events="none" y="15" font-size="10px" fill="#FFFFFF" font-family="sans-serif"> Reloa…</text></g><g class="node" transform="translate(-35.673282749592424,173.66926121996178)"><circle class="outline" cx="0" cy="0" r="25" fill="#57C7E3" stroke="#23b3d7" stroke-width="2px"/><text text-anchor="middle" pointer-events="none" font-family="sans-serif" dy="1.5625" font-size="25" fill="#FFFFFF"/><text text-anchor="middle" pointer-events="none" font-family="sans-serif" dy="1.5625" font-size="25" fill="#FFFFFF"/><text text-anchor="middle" pointer-events="none" y="0" font-size="10px" fill="#FFFFFF" font-family="sans-serif"> The</text><text text-anchor="middle" pointer-events="none" y="10" font-size="10px" fill="#FFFFFF" font-family="sans-serif"> Matrix</text></g><g class="node" transform="translate(-63.215945219414166,293.437808915877)"><circle class="outline" cx="0" cy="0" r="25" fill="#F79767" stroke="#f36924" stroke-width="2px"/><text text-anchor="middle" pointer-events="none" font-family="sans-serif" dy="1.5625" font-size="25" fill="#FFFFFF"/><text text-anchor="middle" pointer-events="none" font-family="sans-serif" dy="1.5625" font-size="25" fill="#FFFFFF"/><text text-anchor="middle" pointer-events="none" y="0" font-size="10px" fill="#FFFFFF" font-family="sans-serif"> Emil</text><text text-anchor="middle" pointer-events="none" y="10" font-size="10px" fill="#FFFFFF" font-family="sans-serif"> Eifrem</text></g></g></svg>