<svg xmlns="http://www.w3.org/2000/svg" width="470.7129211425781" height="354.169189453125" viewBox="-103.23471069335938 -102.96111297607422 470.7129211425781 354.169189453125"><title>Neo4j Graph Visualization</title><desc>Created using Neo4j (http://www.neo4j.com/)</desc><g class="layer relationships"><g class="relationship" transform="translate(226.12109801018102 106.07444482474962) rotate(434.0271534994779)"><path class="outline" fill="#A5ABB6" stroke="none" d="M 25 0.5 L 34.117432071450416 0.5 L 34.117432071450416 -0.5 L 25 -0.5 Z M 79.67993207145042 0.5 L 88.79736414290083 0.5 L 88.79736414290083 3.5 L 95.79736414290083 0 L 88.79736414290083 -3.5 L 88.79736414290083 -0.5 L 79.67993207145042 -0.5 Z"/><text text-anchor="middle" pointer-events="none" font-size="8px" fill="#000000" x="56.898682071450416" y="3" font-family="sans-serif">ACTED_IN</text></g><g class="relationship" transform="translate(226.12109801018102 106.07444482474962) rotate(372.57035663329043)"><path class="outline" fill="#A5ABB6" stroke="none" d="M 25 0.5 L 31.277016013020507 0.5 L 31.277016013020507 -0.5 L 25 -0.5 Z M 76.8395160130205 0.5 L 83.11653202604101 0.5 L 83.11653202604101 3.5 L 90.11653202604101 0 L 83.11653202604101 -3.5 L 83.11653202604101 -0.5 L 76.8395160130205 -0.5 Z"/><text text-anchor="middle" pointer-events="none" font-size="8px" fill="#000000" x="54.05826601302051" y="3" font-family="sans-serif">ACTED_IN</text></g><g class="relationship" transform="translate(226.12109801018102 106.07444482474962) rotate(221.16300051927408)"><path class="outline" fill="#A5ABB6" stroke="none" d="M 25 0.5 L 46.766055432548626 0.5 L 46.766055432548626 -0.5 L 25 -0.5 Z M 92.32855543254863 0.5 L 114.09461086509725 0.5 L 114.09461086509725 3.5 L 121.09461086509725 0 L 114.09461086509725 -3.5 L 114.09461086509725 -0.5 L 92.32855543254863 -0.5 Z"/><text text-anchor="middle" pointer-events="none" font-size="8px" fill="#000000" x="69.54730543254863" y="3" transform="rotate(180 69.54730543254863 0)" font-family="sans-serif">ACTED_IN</text></g><g class="relationship" transform="translate(226.12109801018102 106.07444482474962) rotate(205.98165965766128)"><path class="outline" fill="#A5ABB6" stroke="none" d="M 25 0.5 L 26.29159453746074 0.5 L 26.29159453746074 -0.5 L 25 -0.5 Z M 61.62753203746074 0.5 L 62.91912657492148 0.5 L 62.91912657492148 3.5 L 69.91912657492148 0 L 62.91912657492148 -3.5 L 62.91912657492148 -0.5 L 61.62753203746074 -0.5 Z"/><text text-anchor="middle" pointer-events="none" font-size="8px" fill="#000000" x="43.95956328746074" y="3" transform="rotate(180 43.95956328746074 0)" font-family="sans-serif">ACTE…</text></g><g class="relationship" transform="translate(226.12109801018102 106.07444482474962) rotate(240.83338984598208)"><path class="outline" fill="#A5ABB6" stroke="none" d="M 25 0.5 L 25.361402803178898 0.5 L 25.361402803178898 -0.5 L 25 -0.5 Z M 70.92390280317889 0.5 L 71.2853056063578 0.5 L 71.2853056063578 3.5 L 78.2853056063578 0 L 71.2853056063578 -3.5 L 71.2853056063578 -0.5 L 70.92390280317889 -0.5 Z"/><text text-anchor="middle" pointer-events="none" font-size="8px" fill="#000000" x="48.1426528031789" y="3" transform="rotate(180 48.1426528031789 0)" font-family="sans-serif">ACTED_IN</text></g><g class="relationship" transform="translate(204.77459404591906 -63.42564276090842) rotate(500.39568662850866)"><path class="outline" fill="#A5ABB6" stroke="none" d="M 25 0.5 L 31.2420311563829 0.5 L 31.2420311563829 -0.5 L 25 -0.5 Z M 76.8045311563829 0.5 L 83.0465623127658 0.5 L 83.0465623127658 3.5 L 90.0465623127658 0 L 83.0465623127658 -3.5 L 83.0465623127658 -0.5 L 76.8045311563829 -0.5 Z"/><text text-anchor="middle" pointer-events="none" font-size="8px" fill="#000000" x="54.0232811563829" y="3" transform="rotate(180 54.0232811563829 0)" font-family="sans-serif">ACTED_IN</text></g><g class="relationship" transform="translate(204.77459404591906 -63.42564276090842) rotate(476.572489908527)"><path class="outline" fill="#A5ABB6" stroke="none" d="M 25 0.5 L 45.23150061914477 0.5 L 45.23150061914477 -0.5 L 25 -0.5 Z M 90.79400061914477 0.5 L 111.02550123828954 0.5 L 111.02550123828954 3.5 L 118.02550123828954 0 L 111.02550123828954 -3.5 L 111.02550123828954 -0.5 L 90.79400061914477 -0.5 Z"/><text text-anchor="middle" pointer-events="none" font-size="8px" fill="#000000" x="68.01275061914477" y="3" transform="rotate(180 68.01275061914477 0)" font-family="sans-serif">ACTED_IN</text></g><g class="relationship" transform="translate(204.77459404591906 -63.42564276090842) rotate(470.07838619568196)"><path class="outline" fill="#A5ABB6" stroke="none" d="M 25 0.5 L 26.164772743567504 0.5 L 26.164772743567504 -0.5 L 25 -0.5 Z M 51.278053993567504 0.5 L 52.44282673713501 0.5 L 52.44282673713501 3.5 L 59.44282673713501 0 L 52.44282673713501 -3.5 L 52.44282673713501 -0.5 L 51.278053993567504 -0.5 Z"/><text text-anchor="middle" pointer-events="none" font-size="8px" fill="#000000" x="38.721413368567504" y="3" transform="rotate(180 38.721413368567504 0)" font-family="sans-serif">AC…</text></g><g class="relationship" transform="translate(103.82946690976435 -73.9611115280145) rotate(441.65343591242026)"><path class="outline" fill="#A5ABB6" stroke="none" d="M 25 0.5 L 26.33010401332926 0.5 L 26.33010401332926 -0.5 L 25 -0.5 Z M 51.44338526332926 0.5 L 52.77348927665852 0.5 L 52.77348927665852 3.5 L 59.77348927665852 0 L 52.77348927665852 -3.5 L 52.77348927665852 -0.5 L 51.44338526332926 -0.5 Z"/><text text-anchor="middle" pointer-events="none" font-size="8px" fill="#000000" x="38.88674463832926" y="3" font-family="sans-serif">AC…</text></g><g class="relationship" transform="translate(103.82946690976435 -73.9611115280145) rotate(435.0512932540096)"><path class="outline" fill="#A5ABB6" stroke="none" d="M 25 0.5 L 45.37016903792207 0.5 L 45.37016903792207 -0.5 L 25 -0.5 Z M 90.93266903792207 0.5 L 111.30283807584414 0.5 L 111.30283807584414 3.5 L 118.30283807584414 0 L 111.30283807584414 -3.5 L 111.30283807584414 -0.5 L 90.93266903792207 -0.5 Z"/><text text-anchor="middle" pointer-events="none" font-size="8px" fill="#000000" x="68.15141903792207" y="3" font-family="sans-serif">ACTED_IN</text></g><g class="relationship" transform="translate(103.82946690976435 -73.9611115280145) rotate(411.3096799256649)"><path class="outline" fill="#A5ABB6" stroke="none" d="M 25 0.5 L 31.272905189509153 0.5 L 31.272905189509153 -0.5 L 25 -0.5 Z M 76.83540518950915 0.5 L 83.1083103790183 0.5 L 83.1083103790183 3.5 L 90.1083103790183 0 L 83.1083103790183 -3.5 L 83.1083103790183 -0.5 L 76.83540518950915 -0.5 Z"/><text text-anchor="middle" pointer-events="none" font-size="8px" fill="#000000" x="54.05415518950915" y="3" font-family="sans-serif">ACTED_IN</text></g><g class="relationship" transform="translate(47.8553057335064 89.84014418758107) rotate(215.55076288498094)"><path class="outline" fill="#A5ABB6" stroke="none" d="M 25 0.5 L 35.37032202685998 0.5 L 35.37032202685998 -0.5 L 25 -0.5 Z M 80.93282202685998 0.5 L 91.30314405371996 0.5 L 91.30314405371996 3.5 L 98.30314405371996 0 L 91.30314405371996 -3.5 L 91.30314405371996 -0.5 L 80.93282202685998 -0.5 Z"/><text text-anchor="middle" pointer-events="none" font-size="8px" fill="#000000" x="58.15157202685998" y="3" transform="rotate(180 58.15157202685998 0)" font-family="sans-serif">ACTED_IN</text></g><g class="relationship" transform="translate(47.8553057335064 89.84014418758107) rotate(530.184856764726)"><path class="outline" fill="#A5ABB6" stroke="none" d="M 25 0.5 L 35.6705546820925 0.5 L 35.6705546820925 -0.5 L 25 -0.5 Z M 81.2330546820925 0.5 L 91.903609364185 0.5 L 91.903609364185 3.5 L 98.903609364185 0 L 91.903609364185 -3.5 L 91.903609364185 -0.5 L 81.2330546820925 -0.5 Z"/><text text-anchor="middle" pointer-events="none" font-size="8px" fill="#000000" x="58.4518046820925" y="3" transform="rotate(180 58.4518046820925 0)" font-family="sans-serif">ACTED_IN</text></g><g class="relationship" transform="translate(47.8553057335064 89.84014418758107) rotate(487.85236633626874)"><path class="outline" fill="#A5ABB6" stroke="none" d="M 25 0.5 L 36.56505709194872 0.5 L 36.56505709194872 -0.5 L 25 -0.5 Z M 82.12755709194872 0.5 L 93.69261418389743 0.5 L 93.69261418389743 3.5 L 100.69261418389743 0 L 93.69261418389743 -3.5 L 93.69261418389743 -0.5 L 82.12755709194872 -0.5 Z"/><text text-anchor="middle" pointer-events="none" font-size="8px" fill="#000000" x="59.34630709194872" y="3" transform="rotate(180 59.34630709194872 0)" font-family="sans-serif">ACTED_IN</text></g><g class="relationship" transform="translate(47.8553057335064 89.84014418758107) rotate(446.4196168330079)"><path class="outline" fill="#A5ABB6" stroke="none" d="M 25 0.5 L 36.30346481244353 0.5 L 36.30346481244353 -0.5 L 25 -0.5 Z M 81.86596481244354 0.5 L 93.16942962488706 0.5 L 93.16942962488706 3.5 L 100.16942962488706 0 L 93.16942962488706 -3.5 L 93.16942962488706 -0.5 L 81.86596481244354 -0.5 Z"/><text text-anchor="middle" pointer-events="none" font-size="8px" fill="#000000" x="59.08471481244353" y="3" font-family="sans-serif">ACTED_IN</text></g><g class="relationship" transform="translate(47.8553057335064 89.84014418758107) rotate(310.5070185426457)"><path class="outline" fill="#A5ABB6" stroke="none" d="M 25 0.5 L 26.278857406990653 0.5 L 26.278857406990653 -0.5 L 25 -0.5 Z M 71.84135740699065 0.5 L 73.1202148139813 0.5 L 73.1202148139813 3.5 L 80.1202148139813 0 L 73.1202148139813 -3.5 L 73.1202148139813 -0.5 L 71.84135740699065 -0.5 Z"/><text text-anchor="middle" pointer-events="none" font-size="8px" fill="#000000" x="49.06010740699065" y="3" font-family="sans-serif">ACTED_IN</text></g><g class="relationship" transform="translate(47.8553057335064 89.84014418758107) rotate(344.7443100558405)"><path class="outline" fill="#A5ABB6" stroke="none" d="M 25 0.5 L 26.999252181028766 0.5 L 26.999252181028766 -0.5 L 25 -0.5 Z M 62.335189681028766 0.5 L 64.33444186205753 0.5 L 64.33444186205753 3.5 L 71.33444186205753 0 L 64.33444186205753 -3.5 L 64.33444186205753 -0.5 L 62.335189681028766 -0.5 Z"/><text text-anchor="middle" pointer-events="none" font-size="8px" fill="#000000" x="44.667220931028766" y="3" font-family="sans-serif">ACTE…</text></g><g class="relationship" transform="translate(47.8553057335064 89.84014418758107) rotate(329.96814043932466)"><path class="outline" fill="#A5ABB6" stroke="none" d="M 25 0.5 L 47.60267501993401 0.5 L 47.60267501993401 -0.5 L 25 -0.5 Z M 93.16517501993401 0.5 L 115.76785003986802 0.5 L 115.76785003986802 3.5 L 122.76785003986802 0 L 115.76785003986802 -3.5 L 115.76785003986802 -0.5 L 93.16517501993401 -0.5 Z"/><text text-anchor="middle" pointer-events="none" font-size="8px" fill="#000000" x="70.38392501993401" y="3" font-family="sans-serif">ACTED_IN</text></g></g><g class="layer nodes"><g class="node" transform="translate(259.36232996563643,222.20809060389578)"><circle class="outline" cx="0" cy="0" r="25" fill="#57C7E3" stroke="#23b3d7" stroke-width="2px"/><text text-anchor="middle" pointer-events="none" font-family="sans-serif" dy="1.5625" font-size="25" fill="#FFFFFF"/><text text-anchor="middle" pointer-events="none" font-family="sans-serif" dy="1.5625" font-size="25" fill="#FFFFFF"/><text text-anchor="middle" pointer-events="none" y="0" font-size="10px" fill="#FFFFFF" font-family="sans-serif"> Cloud</text><text text-anchor="middle" pointer-events="none" y="10" font-size="10px" fill="#FFFFFF" font-family="sans-serif"> Atlas</text></g><g class="node" transform="translate(226.12109801018102,106.07444482474962)"><circle class="outline" cx="0" cy="0" r="25" fill="#F79767" stroke="#f36924" stroke-width="2px"/><text text-anchor="middle" pointer-events="none" font-family="sans-serif" dy="1.5625" font-size="25" fill="#FFFFFF"/><text text-anchor="middle" pointer-events="none" font-family="sans-serif" dy="1.5625" font-size="25" fill="#FFFFFF"/><text text-anchor="middle" pointer-events="none" y="0" font-size="10px" fill="#FFFFFF" font-family="sans-serif"> Hugo</text><text text-anchor="middle" pointer-events="none" y="10" font-size="10px" fill="#FFFFFF" font-family="sans-serif"> Weaving</text></g><g class="node" transform="translate(175.7849144795374,15.885071937651176)"><circle class="outline" cx="0" cy="0" r="25" fill="#57C7E3" stroke="#23b3d7" stroke-width="2px"/><text text-anchor="middle" pointer-events="none" font-family="sans-serif" dy="1.5625" font-size="25" fill="#FFFFFF"/><text text-anchor="middle" pointer-events="none" font-family="sans-serif" dy="1.5625" font-size="25" fill="#FFFFFF"/><text text-anchor="middle" pointer-events="none" y="0" font-size="10px" fill="#FFFFFF" font-family="sans-serif"> The</text><text text-anchor="middle" pointer-events="none" y="10" font-size="10px" fill="#FFFFFF" font-family="sans-serif"> Matrix</text></g><g class="node" transform="translate(338.4782284036992,131.12821091762444)"><circle class="outline" cx="0" cy="0" r="25" fill="#57C7E3" stroke="#23b3d7" stroke-width="2px"/><text text-anchor="middle" pointer-events="none" font-family="sans-serif" dy="1.5625" font-size="25" fill="#FFFFFF"/><text text-anchor="middle" pointer-events="none" font-family="sans-serif" dy="1.5625" font-size="25" fill="#FFFFFF"/><text text-anchor="middle" pointer-events="none" y="0" font-size="10px" fill="#FFFFFF" font-family="sans-serif"> V for</text><text text-anchor="middle" pointer-events="none" y="10" font-size="10px" fill="#FFFFFF" font-family="sans-serif"> Vendetta</text></g><g class="node" transform="translate(116.13521522641823,9.914469200269622)"><circle class="outline" cx="0" cy="0" r="25" fill="#57C7E3" stroke="#23b3d7" stroke-width="2px"/><text text-anchor="middle" pointer-events="none" font-family="sans-serif" dy="1.5625" font-size="25" fill="#FFFFFF"/><text text-anchor="middle" pointer-events="none" font-family="sans-serif" dy="1.5625" font-size="25" fill="#FFFFFF"/><text text-anchor="middle" pointer-events="none" font-family="sans-serif" dy="1.5625" font-size="25" fill="#FFFFFF"/><text text-anchor="middle" pointer-events="none" y="-5" font-size="10px" fill="#FFFFFF" font-family="sans-serif"> The</text><text text-anchor="middle" pointer-events="none" y="5" font-size="10px" fill="#FFFFFF" font-family="sans-serif"> Matrix</text><text text-anchor="middle" pointer-events="none" y="15" font-size="10px" fill="#FFFFFF" font-family="sans-serif"> Revol…</text></g><g class="node" transform="translate(140.79503726329935,64.49194914248658)"><circle class="outline" cx="0" cy="0" r="25" fill="#57C7E3" stroke="#23b3d7" stroke-width="2px"/><text text-anchor="middle" pointer-events="none" font-family="sans-serif" dy="1.5625" font-size="25" fill="#FFFFFF"/><text text-anchor="middle" pointer-events="none" font-family="sans-serif" dy="1.5625" font-size="25" fill="#FFFFFF"/><text text-anchor="middle" pointer-events="none" font-family="sans-serif" dy="1.5625" font-size="25" fill="#FFFFFF"/><text text-anchor="middle" pointer-events="none" y="-5" font-size="10px" fill="#FFFFFF" font-family="sans-serif"> The</text><text text-anchor="middle" pointer-events="none" y="5" font-size="10px" fill="#FFFFFF" font-family="sans-serif"> Matrix</text><text text-anchor="middle" pointer-events="none" y="15" font-size="10px" fill="#FFFFFF" font-family="sans-serif"> Reloa…</text></g><g class="node" transform="translate(204.77459404591906,-63.42564276090842)"><circle class="outline" cx="0" cy="0" r="25" fill="#F79767" stroke="#f36924" stroke-width="2px"/><text text-anchor="middle" pointer-events="none" font-family="sans-serif" dy="1.5625" font-size="25" fill="#FFFFFF"/><text text-anchor="middle" pointer-events="none" font-family="sans-serif" dy="1.5625" font-size="25" fill="#FFFFFF"/><text text-anchor="middle" pointer-events="none" y="0" font-size="10px" fill="#FFFFFF" font-family="sans-serif"> Laurence</text><text text-anchor="middle" pointer-events="none" y="10" font-size="10px" fill="#FFFFFF" font-family="sans-serif"> Fishbur…</text></g><g class="node" transform="translate(103.82946690976435,-73.9611115280145)"><circle class="outline" cx="0" cy="0" r="25" fill="#F79767" stroke="#f36924" stroke-width="2px"/><text text-anchor="middle" pointer-events="none" font-family="sans-serif" dy="1.5625" font-size="25" fill="#FFFFFF"/><text text-anchor="middle" pointer-events="none" y="5" font-size="10px" fill="#FFFFFF" font-family="sans-serif"> Carrie-A…</text></g><g class="node" transform="translate(-52.464219566804275,18.14873482039997)"><circle class="outline" cx="0" cy="0" r="25" fill="#57C7E3" stroke="#23b3d7" stroke-width="2px"/><text text-anchor="middle" pointer-events="none" font-family="sans-serif" dy="1.5625" font-size="25" fill="#FFFFFF"/><text text-anchor="middle" pointer-events="none" y="5" font-size="10px" fill="#FFFFFF" font-family="sans-serif"> Somethi…</text></g><g class="node" transform="translate(47.8553057335064,89.84014418758107)"><circle class="outline" cx="0" cy="0" r="25" fill="#F79767" stroke="#f36924" stroke-width="2px"/><text text-anchor="middle" pointer-events="none" font-family="sans-serif" dy="1.5625" font-size="25" fill="#FFFFFF"/><text text-anchor="middle" pointer-events="none" font-family="sans-serif" dy="1.5625" font-size="25" fill="#FFFFFF"/><text text-anchor="middle" pointer-events="none" y="0" font-size="10px" fill="#FFFFFF" font-family="sans-serif"> Keanu</text><text text-anchor="middle" pointer-events="none" y="10" font-size="10px" fill="#FFFFFF" font-family="sans-serif"> Reeves</text></g><g class="node" transform="translate(-74.23471136095318,110.96198452754956)"><circle class="outline" cx="0" cy="0" r="25" fill="#57C7E3" stroke="#23b3d7" stroke-width="2px"/><text text-anchor="middle" pointer-events="none" font-family="sans-serif" dy="1.5625" font-size="25" fill="#FFFFFF"/><text text-anchor="middle" pointer-events="none" font-family="sans-serif" dy="1.5625" font-size="25" fill="#FFFFFF"/><text text-anchor="middle" pointer-events="none" y="0" font-size="10px" fill="#FFFFFF" font-family="sans-serif"> The</text><text text-anchor="middle" pointer-events="none" y="10" font-size="10px" fill="#FFFFFF" font-family="sans-serif"> Replac…</text></g><g class="node" transform="translate(-29.27332384287331,189.08634189838358)"><circle class="outline" cx="0" cy="0" r="25" fill="#57C7E3" stroke="#23b3d7" stroke-width="2px"/><text text-anchor="middle" pointer-events="none" font-family="sans-serif" dy="1.5625" font-size="25" fill="#FFFFFF"/><text text-anchor="middle" pointer-events="none" font-family="sans-serif" dy="1.5625" font-size="25" fill="#FFFFFF"/><text text-anchor="middle" pointer-events="none" y="0" font-size="10px" fill="#FFFFFF" font-family="sans-serif"> Johnny</text><text text-anchor="middle" pointer-events="none" y="10" font-size="10px" fill="#FFFFFF" font-family="sans-serif"> Mnemo…</text></g><g class="node" transform="translate(55.67198805453542,214.7652641199296)"><circle class="outline" cx="0" cy="0" r="25" fill="#57C7E3" stroke="#23b3d7" stroke-width="2px"/><text text-anchor="middle" pointer-events="none" font-family="sans-serif" dy="1.5625" font-size="25" fill="#FFFFFF"/><text text-anchor="middle" pointer-events="none" font-family="sans-serif" dy="1.5625" font-size="25" fill="#FFFFFF"/><text text-anchor="middle" pointer-events="none" font-family="sans-serif" dy="1.5625" font-size="25" fill="#FFFFFF"/><text text-anchor="middle" pointer-events="none" y="-5" font-size="10px" fill="#FFFFFF" font-family="sans-serif"> The</text><text text-anchor="middle" pointer-events="none" y="5" font-size="10px" fill="#FFFFFF" font-family="sans-serif"> Devil's</text><text text-anchor="middle" pointer-events="none" y="15" font-size="10px" fill="#FFFFFF" font-family="sans-serif"> Advoc…</text></g></g></svg>