<svg xmlns="http://www.w3.org/2000/svg" width="379.17620849609375" height="370.717041015625" viewBox="-92.22515869140625 -83.06951904296875 379.17620849609375 370.717041015625"><title>Neo4j Graph Visualization</title><desc>Created using Neo4j (http://www.neo4j.com/)</desc><g class="layer relationships"><g class="relationship" transform="translate(152.9886813846639 258.6475250530507) rotate(306.39730669492104)"><path class="outline" fill="#A5ABB6" stroke="none" d="M 24.018736134675446,6.953439040707552 L 24.277555179777966,5.987513214418485 A 100.1571142666048 100.1571142666048 0 0 0 25.494178615428147,6.305334515522645 L 25.247506719777352,7.274433569229771 A 101.1571142666048 101.1571142666048 0 0 1 24.018736134675446,6.953439040707552 Z M 71.93989004622341,8.03661261924843 L 71.72497914895877,7.059978959047783 A 100.1571142666048 100.1571142666048 0 0 0 72.95132750209646,6.78203529503453 L 72.26986207208064,3.8604595442292635 L 79.88191515897805,5.678878583465163 L 73.85994807545087,10.677469629441552 L 73.17848264543505,7.755893878636285 A 101.1571142666048 101.1571142666048 0 0 1 71.93989004622341,8.03661261924843"/><text text-anchor="middle" pointer-events="none" font-size="8px" fill="#000000" x="48.55727507903273" y="12.886876567982071" font-family="sans-serif">DIRECTED</text></g><g class="relationship" transform="translate(152.9886813846639 258.6475250530507) rotate(306.39730669492104)"><path class="outline" fill="#A5ABB6" stroke="none" d="M 24.018736134675446,-6.953439040707552 L 24.277555179777966,-5.987513214418485 A 100.1571142666048 100.1571142666048 0 0 1 30.889186217076645,-7.521016933130596 L 30.696379767142346,-8.502253740870572 A 101.1571142666048 101.1571142666048 0 0 0 24.018736134675446,-6.953439040707552 Z M 66.45384621795401,-9.085937628240643 L 66.29316822232997,-8.098930747959542 A 100.1571142666048 100.1571142666048 0 0 1 72.95132750209646,-6.78203529503453 L 72.26986207208064,-3.8604595442292635 L 79.88191515897805,-5.678878583465163 L 73.85994807545087,-10.677469629441552 L 73.17848264543505,-7.755893878636285 A 101.1571142666048 101.1571142666048 0 0 0 66.45384621795401,-9.085937628240643"/><text text-anchor="middle" pointer-events="none" font-size="8px" fill="#000000" x="48.557275079032706" y="-6.886876567982071" font-family="sans-serif">WROTE</text></g><g class="relationship" transform="translate(257.9510607839193 79.78517393320061) rotate(474.4182321845145)"><path class="outline" fill="#A5ABB6" stroke="none" d="M 24.018736134675446,6.953439040707552 L 24.277555179777966,5.987513214418485 A 100.29192401523589 100.29192401523589 0 0 0 25.527057763684788,6.313709103763728 L 25.280697374612405,7.282887394222257 A 101.29192401523589 101.29192401523589 0 0 1 24.018736134675446,6.953439040707552 Z M 71.97391229039427,8.044618051963639 L 71.75929599875163,7.06791960957645 A 100.29192401523589 100.29192401523589 0 0 0 73.01877367126689,6.782654017800799 L 72.33725044663785,3.8610917483478184 L 79.94933950409533,5.679360205241897 L 73.92747130410558,10.678070377071439 L 73.24594807947655,7.756508107618459 A 101.29192401523589 101.29192401523589 0 0 1 71.97391229039427,8.044618051963639"/><text text-anchor="middle" pointer-events="none" font-size="8px" fill="#000000" x="48.59096294991366" y="12.89146840836625" transform="rotate(180 48.59096294991366 9.89146840836625)" font-family="sans-serif">DIRECTED</text></g><g class="relationship" transform="translate(257.9510607839193 79.78517393320061) rotate(474.4182321845145)"><path class="outline" fill="#A5ABB6" stroke="none" d="M 24.018736134675446,-6.953439040707552 L 24.277555179777966,-5.987513214418485 A 100.29192401523589 100.29192401523589 0 0 1 30.922448861099863,-7.527865135379955 L 30.729885337033238,-8.509149645193006 A 101.29192401523589 101.29192401523589 0 0 0 24.018736134675446,-6.953439040707552 Z M 66.48762529032459,-9.09248422224222 L 66.32717212228145,-8.105440767846758 A 100.29192401523589 100.29192401523589 0 0 1 73.01877367126689,-6.782654017800799 L 72.33725044663785,-3.8610917483478184 L 79.94933950409533,-5.679360205241897 L 73.92747130410558,-10.678070377071439 L 73.24594807947655,-7.756508107618459 A 101.29192401523589 101.29192401523589 0 0 0 66.48762529032459,-9.09248422224222"/><text text-anchor="middle" pointer-events="none" font-size="8px" fill="#000000" x="48.59096294991366" y="-6.891468408366251" transform="rotate(180 48.59096294991366 -9.89146840836625)" font-family="sans-serif">WROTE</text></g><g class="relationship" transform="translate(142.06720378669644 -54.069523541583976) rotate(534.3303632712656)"><path class="outline" fill="#A5ABB6" stroke="none" d="M 21.40063509461097,12.933012701892217 L 21.90063509461097,12.06698729810778 A 56.687663464480195 56.687663464480195 0 0 0 23.844789774192204,13.139240120789445 L 23.379085678464204,14.0241806245648 A 57.687663464480195 57.687663464480195 0 0 1 21.40063509461097,12.933012701892217 Z M 73.82155140298045,15.623699211018355 L 73.41284903647454,14.711031486371283 A 56.687663464480195 56.687663464480195 0 0 0 75.42103136935326,13.76410632998341 L 74.08864811325324,11.076215919482213 L 81.91483953653939,11.103193800833548 L 77.19754237748663,17.34796021065167 L 75.86515912138661,14.660069800150474 A 57.687663464480195 57.687663464480195 0 0 1 73.82155140298045,15.623699211018355"/><text text-anchor="middle" pointer-events="none" font-size="8px" fill="#000000" x="48.43197063660957" y="23.132964429866924" transform="rotate(180 48.43197063660957 20.132964429866924)" font-family="sans-serif">PRODUCED</text></g><g class="relationship" transform="translate(142.06720378669644 -54.069523541583976) rotate(534.3303632712656)"><path class="outline" fill="#A5ABB6" stroke="none" d="M 25 0.5 L 25.211650645358013 0.5 L 25.211650645358013 -0.5 L 25 -0.5 Z M 72.10227564535802 0.5 L 72.31392629071603 0.5 L 72.31392629071603 3.5 L 79.31392629071603 0 L 72.31392629071603 -3.5 L 72.31392629071603 -0.5 L 72.10227564535802 -0.5 Z"/><text text-anchor="middle" pointer-events="none" font-size="8px" fill="#000000" x="48.65696314535801" y="3" transform="rotate(180 48.65696314535801 0)" font-family="sans-serif">DIRECTED</text></g><g class="relationship" transform="translate(142.06720378669644 -54.069523541583976) rotate(534.3303632712656)"><path class="outline" fill="#A5ABB6" stroke="none" d="M 21.40063509461097,-12.933012701892217 L 21.90063509461097,-12.06698729810778 A 56.687663464480195 56.687663464480195 0 0 1 31.101085744894036,-16.331524505376272 L 30.7633865011432,-17.272778573505654 A 57.687663464480195 57.687663464480195 0 0 0 21.40063509461097,-12.933012701892217 Z M 66.24626804093751,-18.397932304764396 L 65.96888115693,-17.437174001869963 A 56.687663464480195 56.687663464480195 0 0 1 75.42103136935326,-13.76410632998341 L 74.08864811325324,-11.076215919482213 L 81.91483953653939,-11.103193800833548 L 77.19754237748663,-17.34796021065167 L 75.86515912138661,-14.660069800150474 A 57.687663464480195 57.687663464480195 0 0 0 66.24626804093751,-18.397932304764396"/><text text-anchor="middle" pointer-events="none" font-size="8px" fill="#000000" x="48.43197063660957" y="-17.132964429866924" transform="rotate(180 48.43197063660957 -20.132964429866924)" font-family="sans-serif">WROTE</text></g><g class="relationship" transform="translate(-63.22515542443617 100.10272862166555) rotate(432.0231064668929)"><path class="outline" fill="#A5ABB6" stroke="none" d="M 21.40063509461097,12.933012701892217 L 21.90063509461097,12.06698729810778 A 57.57968798909651 57.57968798909651 0 0 0 31.519742986175086,16.49611252006642 L 31.186800298006744,17.439059584537823 A 58.57968798909651 58.57968798909651 0 0 1 21.40063509461097,12.933012701892217 Z M 66.6829839318046,18.555925709665757 L 66.40997966374462,17.59391288770285 A 57.57968798909651 57.57968798909651 0 0 0 76.28850427034173,13.778268976356339 L 74.95480347713685,11.091032069382063 L 82.78100718548252,11.11417327670733 L 78.06677199461491,17.361251518988706 L 76.73307120141003,14.67401461201443 A 58.57968798909651 58.57968798909651 0 0 1 66.6829839318046,18.555925709665757"/><text text-anchor="middle" pointer-events="none" font-size="8px" fill="#000000" x="48.86394046723178" y="23.252474384205215" font-family="sans-serif">WROTE</text></g><g class="relationship" transform="translate(-63.22515542443617 100.10272862166555) rotate(432.0231064668929)"><path class="outline" fill="#A5ABB6" stroke="none" d="M 25 0.5 L 25.642011538467408 0.5 L 25.642011538467408 -0.5 L 25 -0.5 Z M 72.53263653846741 0.5 L 73.17464807693482 0.5 L 73.17464807693482 3.5 L 80.17464807693482 0 L 73.17464807693482 -3.5 L 73.17464807693482 -0.5 L 72.53263653846741 -0.5 Z"/><text text-anchor="middle" pointer-events="none" font-size="8px" fill="#000000" x="49.08732403846741" y="3" font-family="sans-serif">DIRECTED</text></g><g class="relationship" transform="translate(-63.22515542443617 100.10272862166555) rotate(432.0231064668929)"><path class="outline" fill="#A5ABB6" stroke="none" d="M 21.40063509461097,-12.933012701892217 L 21.90063509461097,-12.06698729810778 A 57.57968798909651 57.57968798909651 0 0 1 24.242868017259795,-13.34781802096424 L 23.78354612796947,-14.23608791351873 A 58.57968798909651 58.57968798909651 0 0 0 21.40063509461097,-12.933012701892217 Z M 74.27295384747397,-15.824706840596747 L 73.8703829979552,-14.909318010034703 A 57.57968798909651 57.57968798909651 0 0 1 76.28850427034173,-13.778268976356339 L 74.95480347713685,-11.091032069382063 L 82.78100718548252,-11.11417327670733 L 78.06677199461491,-17.361251518988706 L 76.73307120141003,-14.67401461201443 A 58.57968798909651 58.57968798909651 0 0 0 74.27295384747397,-15.824706840596747"/><text text-anchor="middle" pointer-events="none" font-size="8px" fill="#000000" x="48.863940467231764" y="-17.252474384205215" font-family="sans-serif">PRODUCED</text></g></g><g class="layer nodes"><g class="node" transform="translate(152.9886813846639,258.6475250530507)"><circle class="outline" cx="0" cy="0" r="25" fill="#F79767" stroke="#f36924" stroke-width="2px"/><text text-anchor="middle" pointer-events="none" font-family="sans-serif" dy="1.5625" font-size="25" fill="#FFFFFF"/><text text-anchor="middle" pointer-events="none" font-family="sans-serif" dy="1.5625" font-size="25" fill="#FFFFFF"/><text text-anchor="middle" pointer-events="none" y="0" font-size="10px" fill="#FFFFFF" font-family="sans-serif"> Lilly</text><text text-anchor="middle" pointer-events="none" y="10" font-size="10px" fill="#FFFFFF" font-family="sans-serif"> Wacho…</text></g><g class="node" transform="translate(214.83582682829183,174.75184134059106)"><circle class="outline" cx="0" cy="0" r="25" fill="#57C7E3" stroke="#23b3d7" stroke-width="2px"/><text text-anchor="middle" pointer-events="none" font-family="sans-serif" dy="1.5625" font-size="25" fill="#FFFFFF"/><text text-anchor="middle" pointer-events="none" font-family="sans-serif" dy="1.5625" font-size="25" fill="#FFFFFF"/><text text-anchor="middle" pointer-events="none" y="0" font-size="10px" fill="#FFFFFF" font-family="sans-serif"> Speed</text><text text-anchor="middle" pointer-events="none" y="10" font-size="10px" fill="#FFFFFF" font-family="sans-serif"> Racer</text></g><g class="node" transform="translate(257.9510607839193,79.78517393320061)"><circle class="outline" cx="0" cy="0" r="25" fill="#F79767" stroke="#f36924" stroke-width="2px"/><text text-anchor="middle" pointer-events="none" font-family="sans-serif" dy="1.5625" font-size="25" fill="#FFFFFF"/><text text-anchor="middle" pointer-events="none" font-family="sans-serif" dy="1.5625" font-size="25" fill="#FFFFFF"/><text text-anchor="middle" pointer-events="none" y="0" font-size="10px" fill="#FFFFFF" font-family="sans-serif"> Lana</text><text text-anchor="middle" pointer-events="none" y="10" font-size="10px" fill="#FFFFFF" font-family="sans-serif"> Wacho…</text></g><g class="node" transform="translate(142.06720378669644,-54.069523541583976)"><circle class="outline" cx="0" cy="0" r="25" fill="#F79767" stroke="#f36924" stroke-width="2px"/><text text-anchor="middle" pointer-events="none" font-family="sans-serif" dy="1.5625" font-size="25" fill="#FFFFFF"/><text text-anchor="middle" pointer-events="none" font-family="sans-serif" dy="1.5625" font-size="25" fill="#FFFFFF"/><text text-anchor="middle" pointer-events="none" y="0" font-size="10px" fill="#FFFFFF" font-family="sans-serif"> Cameron</text><text text-anchor="middle" pointer-events="none" y="10" font-size="10px" fill="#FFFFFF" font-family="sans-serif"> Crowe</text></g><g class="node" transform="translate(38.263574583844665,-43.76409863516721)"><circle class="outline" cx="0" cy="0" r="25" fill="#57C7E3" stroke="#23b3d7" stroke-width="2px"/><text text-anchor="middle" pointer-events="none" font-family="sans-serif" dy="1.5625" font-size="25" fill="#FFFFFF"/><text text-anchor="middle" pointer-events="none" font-family="sans-serif" dy="1.5625" font-size="25" fill="#FFFFFF"/><text text-anchor="middle" pointer-events="none" y="0" font-size="10px" fill="#FFFFFF" font-family="sans-serif"> Jerry</text><text text-anchor="middle" pointer-events="none" y="10" font-size="10px" fill="#FFFFFF" font-family="sans-serif"> Maguire</text></g><g class="node" transform="translate(-63.22515542443617,100.10272862166555)"><circle class="outline" cx="0" cy="0" r="25" fill="#F79767" stroke="#f36924" stroke-width="2px"/><text text-anchor="middle" pointer-events="none" font-family="sans-serif" dy="1.5625" font-size="25" fill="#FFFFFF"/><text text-anchor="middle" pointer-events="none" font-family="sans-serif" dy="1.5625" font-size="25" fill="#FFFFFF"/><text text-anchor="middle" pointer-events="none" y="0" font-size="10px" fill="#FFFFFF" font-family="sans-serif"> Nancy</text><text text-anchor="middle" pointer-events="none" y="10" font-size="10px" fill="#FFFFFF" font-family="sans-serif"> Meyers</text></g><g class="node" transform="translate(-30.76474372821145,200.14286192135026)"><circle class="outline" cx="0" cy="0" r="25" fill="#57C7E3" stroke="#23b3d7" stroke-width="2px"/><text text-anchor="middle" pointer-events="none" font-family="sans-serif" dy="1.5625" font-size="25" fill="#FFFFFF"/><text text-anchor="middle" pointer-events="none" y="5" font-size="10px" fill="#FFFFFF" font-family="sans-serif"> Somethi…</text></g></g></svg>