<svg xmlns="http://www.w3.org/2000/svg" width="220.58999633789062" height="200.37246704101562" viewBox="5.651214599609375 6.7547760009765625 220.58999633789062 200.37246704101562"><title>Neo4j Graph Visualization</title><desc>Created using Neo4j (http://www.neo4j.com/)</desc><g class="layer relationships"><g class="relationship" transform="translate(97.25720461221871 178.12724993653444) rotate(335.3592498349112)"><path class="outline" fill="#A5ABB6" stroke="none" d="M 25 0.5 L 28.719092665978394 0.5 L 28.719092665978394 -0.5 L 25 -0.5 Z M 74.2815926659784 0.5 L 78.00068533195679 0.5 L 78.00068533195679 3.5 L 85.00068533195679 0 L 78.00068533195679 -3.5 L 78.00068533195679 -0.5 L 74.2815926659784 -0.5 Z"/><text text-anchor="middle" pointer-events="none" font-size="8px" fill="#000000" x="51.500342665978394" y="3" font-family="sans-serif">ACTED_IN</text></g><g class="relationship" transform="translate(97.25720461221871 178.12724993653444) rotate(250.7881577002853)"><path class="outline" fill="#A5ABB6" stroke="none" d="M 25 0.5 L 39.922039704201936 0.5 L 39.922039704201936 -0.5 L 25 -0.5 Z M 85.48453970420194 0.5 L 100.40657940840387 0.5 L 100.40657940840387 3.5 L 107.40657940840387 0 L 100.40657940840387 -3.5 L 100.40657940840387 -0.5 L 85.48453970420194 -0.5 Z"/><text text-anchor="middle" pointer-events="none" font-size="8px" fill="#000000" x="62.703289704201936" y="3" transform="rotate(180 62.703289704201936 0)" font-family="sans-serif">ACTED_IN</text></g><g class="relationship" transform="translate(97.25720461221871 178.12724993653444) rotate(227.45297343011356)"><path class="outline" fill="#A5ABB6" stroke="none" d="M 25 0.5 L 25.124874999128735 0.5 L 25.124874999128735 -0.5 L 25 -0.5 Z M 60.460812499128735 0.5 L 60.58568749825747 0.5 L 60.58568749825747 3.5 L 67.58568749825747 0 L 60.58568749825747 -3.5 L 60.58568749825747 -0.5 L 60.460812499128735 -0.5 Z"/><text text-anchor="middle" pointer-events="none" font-size="8px" fill="#000000" x="42.792843749128735" y="3" transform="rotate(180 42.792843749128735 0)" font-family="sans-serif">ACTE…</text></g><g class="relationship" transform="translate(144.44959116979842 35.75477492097579) rotate(421.32109067806124)"><path class="outline" fill="#A5ABB6" stroke="none" d="M 25 0.5 L 28.721407865415294 0.5 L 28.721407865415294 -0.5 L 25 -0.5 Z M 74.2839078654153 0.5 L 78.00531573083059 0.5 L 78.00531573083059 3.5 L 85.00531573083059 0 L 78.00531573083059 -3.5 L 78.00531573083059 -0.5 L 74.2839078654153 -0.5 Z"/><text text-anchor="middle" pointer-events="none" font-size="8px" fill="#000000" x="51.502657865415294" y="3" font-family="sans-serif">ACTED_IN</text></g><g class="relationship" transform="translate(144.44959116979842 35.75477492097579) rotate(529.1841695795885)"><path class="outline" fill="#A5ABB6" stroke="none" d="M 25 0.5 L 25.033957032437854 0.5 L 25.033957032437854 -0.5 L 25 -0.5 Z M 60.369894532437854 0.5 L 60.40385156487571 0.5 L 60.40385156487571 3.5 L 67.40385156487571 0 L 60.40385156487571 -3.5 L 60.40385156487571 -0.5 L 60.369894532437854 -0.5 Z"/><text text-anchor="middle" pointer-events="none" font-size="8px" fill="#000000" x="42.701925782437854" y="3" transform="rotate(180 42.701925782437854 0)" font-family="sans-serif">ACTE…</text></g><g class="relationship" transform="translate(144.44959116979842 35.75477492097579) rotate(505.963229494349)"><path class="outline" fill="#A5ABB6" stroke="none" d="M 25 0.5 L 39.96782730139658 0.5 L 39.96782730139658 -0.5 L 25 -0.5 Z M 85.53032730139658 0.5 L 100.49815460279316 0.5 L 100.49815460279316 3.5 L 107.49815460279316 0 L 100.49815460279316 -3.5 L 100.49815460279316 -0.5 L 85.53032730139658 -0.5 Z"/><text text-anchor="middle" pointer-events="none" font-size="8px" fill="#000000" x="62.74907730139658" y="3" transform="rotate(180 62.74907730139658 0)" font-family="sans-serif">ACTED_IN</text></g></g><g class="layer nodes"><g class="node" transform="translate(97.25720461221871,178.12724993653444)"><circle class="outline" cx="0" cy="0" r="25" fill="#F79767" stroke="#f36924" stroke-width="2px"/><text text-anchor="middle" pointer-events="none" font-family="sans-serif" dy="1.5625" font-size="25" fill="#FFFFFF"/><text text-anchor="middle" pointer-events="none" font-family="sans-serif" dy="1.5625" font-size="25" fill="#FFFFFF"/><text text-anchor="middle" pointer-events="none" y="0" font-size="10px" fill="#FFFFFF" font-family="sans-serif"> Hugo</text><text text-anchor="middle" pointer-events="none" y="10" font-size="10px" fill="#FFFFFF" font-family="sans-serif"> Weaving</text></g><g class="node" transform="translate(197.24120663640738,132.26495482685627)"><circle class="outline" cx="0" cy="0" r="25" fill="#57C7E3" stroke="#23b3d7" stroke-width="2px"/><text text-anchor="middle" pointer-events="none" font-family="sans-serif" dy="1.5625" font-size="25" fill="#FFFFFF"/><text text-anchor="middle" pointer-events="none" font-family="sans-serif" dy="1.5625" font-size="25" fill="#FFFFFF"/><text text-anchor="middle" pointer-events="none" font-family="sans-serif" dy="1.5625" font-size="25" fill="#FFFFFF"/><text text-anchor="middle" pointer-events="none" y="-5" font-size="10px" fill="#FFFFFF" font-family="sans-serif"> The</text><text text-anchor="middle" pointer-events="none" y="5" font-size="10px" fill="#FFFFFF" font-family="sans-serif"> Matrix</text><text text-anchor="middle" pointer-events="none" y="15" font-size="10px" fill="#FFFFFF" font-family="sans-serif"> Revol…</text></g><g class="node" transform="translate(144.44959116979842,35.75477492097579)"><circle class="outline" cx="0" cy="0" r="25" fill="#F79767" stroke="#f36924" stroke-width="2px"/><text text-anchor="middle" pointer-events="none" font-family="sans-serif" dy="1.5625" font-size="25" fill="#FFFFFF"/><text text-anchor="middle" pointer-events="none" font-family="sans-serif" dy="1.5625" font-size="25" fill="#FFFFFF"/><text text-anchor="middle" pointer-events="none" y="0" font-size="10px" fill="#FFFFFF" font-family="sans-serif"> Keanu</text><text text-anchor="middle" pointer-events="none" y="10" font-size="10px" fill="#FFFFFF" font-family="sans-serif"> Reeves</text></g><g class="node" transform="translate(53.68725326874337,53.09460775633756)"><circle class="outline" cx="0" cy="0" r="25" fill="#57C7E3" stroke="#23b3d7" stroke-width="2px"/><text text-anchor="middle" pointer-events="none" font-family="sans-serif" dy="1.5625" font-size="25" fill="#FFFFFF"/><text text-anchor="middle" pointer-events="none" font-family="sans-serif" dy="1.5625" font-size="25" fill="#FFFFFF"/><text text-anchor="middle" pointer-events="none" font-family="sans-serif" dy="1.5625" font-size="25" fill="#FFFFFF"/><text text-anchor="middle" pointer-events="none" y="-5" font-size="10px" fill="#FFFFFF" font-family="sans-serif"> The</text><text text-anchor="middle" pointer-events="none" y="5" font-size="10px" fill="#FFFFFF" font-family="sans-serif"> Matrix</text><text text-anchor="middle" pointer-events="none" y="15" font-size="10px" fill="#FFFFFF" font-family="sans-serif"> Reloa…</text></g><g class="node" transform="translate(34.651215100698266,109.91728287300053)"><circle class="outline" cx="0" cy="0" r="25" fill="#57C7E3" stroke="#23b3d7" stroke-width="2px"/><text text-anchor="middle" pointer-events="none" font-family="sans-serif" dy="1.5625" font-size="25" fill="#FFFFFF"/><text text-anchor="middle" pointer-events="none" font-family="sans-serif" dy="1.5625" font-size="25" fill="#FFFFFF"/><text text-anchor="middle" pointer-events="none" y="0" font-size="10px" fill="#FFFFFF" font-family="sans-serif"> The</text><text text-anchor="middle" pointer-events="none" y="10" font-size="10px" fill="#FFFFFF" font-family="sans-serif"> Matrix</text></g></g></svg>