<svg xmlns="http://www.w3.org/2000/svg" width="296.6144714355469" height="294.7358093261719" viewBox="-57.62006378173828 -39.72057342529297 296.6144714355469 294.7358093261719"><title>Neo4j Graph Visualization</title><desc>Created using Neo4j (http://www.neo4j.com/)</desc><g class="layer relationships"><g class="relationship" transform="translate(136.44275067082725 225.58328789139327) rotate(247.57001545718055)"><path class="outline" fill="#A5ABB6" stroke="none" d="M 25 0.5 L 34.66027625501718 0.5 L 34.66027625501718 -0.5 L 25 -0.5 Z M 81.55090125501718 0.5 L 91.21117751003436 0.5 L 91.21117751003436 3.5 L 98.21117751003436 0 L 91.21117751003436 -3.5 L 91.21117751003436 -0.5 L 81.55090125501718 -0.5 Z"/><text text-anchor="middle" pointer-events="none" font-size="8px" fill="#000000" x="58.10558875501718" y="3" transform="rotate(180 58.10558875501718 0)" font-family="sans-serif">DIRECTED</text></g><g class="relationship" transform="translate(200.18898605917965 166.28804010406904) rotate(206.23950583897874)"><path class="outline" fill="#A5ABB6" stroke="none" d="M 25 0.5 L 40.35446651063499 0.5 L 40.35446651063499 -0.5 L 25 -0.5 Z M 76.12790401063499 0.5 L 91.48237052126998 0.5 L 91.48237052126998 3.5 L 98.48237052126998 0 L 91.48237052126998 -3.5 L 91.48237052126998 -0.5 L 76.12790401063499 -0.5 Z"/><text text-anchor="middle" pointer-events="none" font-size="8px" fill="#000000" x="58.24118526063499" y="3" transform="rotate(180 58.24118526063499 0)" font-family="sans-serif">WROTE</text></g><g class="relationship" transform="translate(209.99441695612177 87.0779971835336) rotate(528.4604996413038)"><path class="outline" fill="#A5ABB6" stroke="none" d="M 25 0.5 L 40.13859299739714 0.5 L 40.13859299739714 -0.5 L 25 -0.5 Z M 75.91203049739714 0.5 L 91.05062349479428 0.5 L 91.05062349479428 3.5 L 98.05062349479428 0 L 91.05062349479428 -3.5 L 91.05062349479428 -0.5 L 75.91203049739714 -0.5 Z"/><text text-anchor="middle" pointer-events="none" font-size="8px" fill="#000000" x="58.02531174739714" y="3" transform="rotate(180 58.02531174739714 0)" font-family="sans-serif">WROTE</text></g><g class="relationship" transform="translate(172.59833770232214 19.645167810814144) rotate(492.09839012275614)"><path class="outline" fill="#A5ABB6" stroke="none" d="M 25 0.5 L 35.7463523148058 0.5 L 35.7463523148058 -0.5 L 25 -0.5 Z M 81.30885231480579 0.5 L 92.0552046296116 0.5 L 92.0552046296116 3.5 L 99.0552046296116 0 L 92.0552046296116 -3.5 L 92.0552046296116 -0.5 L 81.30885231480579 -0.5 Z"/><text text-anchor="middle" pointer-events="none" font-size="8px" fill="#000000" x="58.5276023148058" y="3" transform="rotate(180 58.5276023148058 0)" font-family="sans-serif">ACTED_IN</text></g><g class="relationship" transform="translate(101.71719549617642 -10.720572165185434) rotate(455.73134351656654)"><path class="outline" fill="#A5ABB6" stroke="none" d="M 25 0.5 L 35.23327647808303 0.5 L 35.23327647808303 -0.5 L 25 -0.5 Z M 80.79577647808303 0.5 L 91.02905295616605 0.5 L 91.02905295616605 3.5 L 98.02905295616605 0 L 91.02905295616605 -3.5 L 91.02905295616605 -0.5 L 80.79577647808303 -0.5 Z"/><text text-anchor="middle" pointer-events="none" font-size="8px" fill="#000000" x="58.01452647808303" y="3" transform="rotate(180 58.01452647808303 0)" font-family="sans-serif">ACTED_IN</text></g><g class="relationship" transform="translate(23.90188478897547 7.077293316812979) rotate(417.9379327254999)"><path class="outline" fill="#A5ABB6" stroke="none" d="M 25 0.5 L 35.44113430780161 0.5 L 35.44113430780161 -0.5 L 25 -0.5 Z M 81.0036343078016 0.5 L 91.44476861560322 0.5 L 91.44476861560322 3.5 L 98.44476861560322 0 L 91.44476861560322 -3.5 L 91.44476861560322 -0.5 L 81.0036343078016 -0.5 Z"/><text text-anchor="middle" pointer-events="none" font-size="8px" fill="#000000" x="58.22238430780161" y="3" font-family="sans-serif">ACTED_IN</text></g><g class="relationship" transform="translate(-28.620065188870704 76.54013068463203) rotate(376.58251848548883)"><path class="outline" fill="#A5ABB6" stroke="none" d="M 25 0.5 L 35.30570924102456 0.5 L 35.30570924102456 -0.5 L 25 -0.5 Z M 80.86820924102456 0.5 L 91.17391848204912 0.5 L 91.17391848204912 3.5 L 98.17391848204912 0 L 91.17391848204912 -3.5 L 91.17391848204912 -0.5 L 80.86820924102456 -0.5 Z"/><text text-anchor="middle" pointer-events="none" font-size="8px" fill="#000000" x="58.08695924102456" y="3" font-family="sans-serif">ACTED_IN</text></g><g class="relationship" transform="translate(-19.869249785888062 166.29340133590597) rotate(333.45600448129414)"><path class="outline" fill="#A5ABB6" stroke="none" d="M 25 0.5 L 34.80823338827837 0.5 L 34.80823338827837 -0.5 L 25 -0.5 Z M 80.37073338827837 0.5 L 90.17896677655673 0.5 L 90.17896677655673 3.5 L 97.17896677655673 0 L 90.17896677655673 -3.5 L 90.17896677655673 -0.5 L 80.37073338827837 -0.5 Z"/><text text-anchor="middle" pointer-events="none" font-size="8px" fill="#000000" x="57.58948338827837" y="3" font-family="sans-serif">ACTED_IN</text></g><g class="relationship" transform="translate(46.287321172457816 226.0152317536073) rotate(290.67591800706873)"><path class="outline" fill="#A5ABB6" stroke="none" d="M 25 0.5 L 34.81466526823973 0.5 L 34.81466526823973 -0.5 L 25 -0.5 Z M 80.37716526823974 0.5 L 90.19183053647946 0.5 L 90.19183053647946 3.5 L 97.19183053647946 0 L 90.19183053647946 -3.5 L 90.19183053647946 -0.5 L 80.37716526823974 -0.5 Z"/><text text-anchor="middle" pointer-events="none" font-size="8px" fill="#000000" x="57.59591526823973" y="3" font-family="sans-serif">ACTED_IN</text></g></g><g class="layer nodes"><g class="node" transform="translate(89.4310126071607,111.69346943670259)"><circle class="outline" cx="0" cy="0" r="25" fill="#57C7E3" stroke="#23b3d7" stroke-width="2px"/><text text-anchor="middle" pointer-events="none" font-family="sans-serif" dy="1.5625" font-size="25" fill="#FFFFFF"/><text text-anchor="middle" pointer-events="none" font-family="sans-serif" dy="1.5625" font-size="25" fill="#FFFFFF"/><text text-anchor="middle" pointer-events="none" font-family="sans-serif" dy="1.5625" font-size="25" fill="#FFFFFF"/><text text-anchor="middle" pointer-events="none" y="-5" font-size="10px" fill="#FFFFFF" font-family="sans-serif"> Captain</text><text text-anchor="middle" pointer-events="none" y="5" font-size="10px" fill="#FFFFFF" font-family="sans-serif"> America:</text><text text-anchor="middle" pointer-events="none" y="15" font-size="10px" fill="#FFFFFF" font-family="sans-serif"> The Fi…</text></g><g class="node" transform="translate(136.44275067082725,225.58328789139327)"><circle class="outline" cx="0" cy="0" r="25" fill="#F79767" stroke="#f36924" stroke-width="2px"/><text text-anchor="middle" pointer-events="none" font-family="sans-serif" dy="1.5625" font-size="25" fill="#FFFFFF"/><text text-anchor="middle" pointer-events="none" font-family="sans-serif" dy="1.5625" font-size="25" fill="#FFFFFF"/><text text-anchor="middle" pointer-events="none" y="0" font-size="10px" fill="#FFFFFF" font-family="sans-serif"> Joe</text><text text-anchor="middle" pointer-events="none" y="10" font-size="10px" fill="#FFFFFF" font-family="sans-serif"> Johnston</text></g><g class="node" transform="translate(200.18898605917965,166.28804010406904)"><circle class="outline" cx="0" cy="0" r="25" fill="#F79767" stroke="#f36924" stroke-width="2px"/><text text-anchor="middle" pointer-events="none" font-family="sans-serif" dy="1.5625" font-size="25" fill="#FFFFFF"/><text text-anchor="middle" pointer-events="none" y="5" font-size="10px" fill="#FFFFFF" font-family="sans-serif"> Christop…</text></g><g class="node" transform="translate(209.99441695612177,87.0779971835336)"><circle class="outline" cx="0" cy="0" r="25" fill="#F79767" stroke="#f36924" stroke-width="2px"/><text text-anchor="middle" pointer-events="none" font-family="sans-serif" dy="1.5625" font-size="25" fill="#FFFFFF"/><text text-anchor="middle" pointer-events="none" font-family="sans-serif" dy="1.5625" font-size="25" fill="#FFFFFF"/><text text-anchor="middle" pointer-events="none" y="0" font-size="10px" fill="#FFFFFF" font-family="sans-serif"> Stephen</text><text text-anchor="middle" pointer-events="none" y="10" font-size="10px" fill="#FFFFFF" font-family="sans-serif"> McFeely</text></g><g class="node" transform="translate(172.59833770232214,19.645167810814144)"><circle class="outline" cx="0" cy="0" r="25" fill="#F79767" stroke="#f36924" stroke-width="2px"/><text text-anchor="middle" pointer-events="none" font-family="sans-serif" dy="1.5625" font-size="25" fill="#FFFFFF"/><text text-anchor="middle" pointer-events="none" font-family="sans-serif" dy="1.5625" font-size="25" fill="#FFFFFF"/><text text-anchor="middle" pointer-events="none" y="0" font-size="10px" fill="#FFFFFF" font-family="sans-serif"> Chris</text><text text-anchor="middle" pointer-events="none" y="10" font-size="10px" fill="#FFFFFF" font-family="sans-serif"> Evans</text></g><g class="node" transform="translate(101.71719549617642,-10.720572165185434)"><circle class="outline" cx="0" cy="0" r="25" fill="#F79767" stroke="#f36924" stroke-width="2px"/><text text-anchor="middle" pointer-events="none" font-family="sans-serif" dy="1.5625" font-size="25" fill="#FFFFFF"/><text text-anchor="middle" pointer-events="none" font-family="sans-serif" dy="1.5625" font-size="25" fill="#FFFFFF"/><text text-anchor="middle" pointer-events="none" y="0" font-size="10px" fill="#FFFFFF" font-family="sans-serif"> Hayley</text><text text-anchor="middle" pointer-events="none" y="10" font-size="10px" fill="#FFFFFF" font-family="sans-serif"> Atwell</text></g><g class="node" transform="translate(23.90188478897547,7.077293316812979)"><circle class="outline" cx="0" cy="0" r="25" fill="#F79767" stroke="#f36924" stroke-width="2px"/><text text-anchor="middle" pointer-events="none" font-family="sans-serif" dy="1.5625" font-size="25" fill="#FFFFFF"/><text text-anchor="middle" pointer-events="none" y="5" font-size="10px" fill="#FFFFFF" font-family="sans-serif"> Sebastian</text></g><g class="node" transform="translate(-28.620065188870704,76.54013068463203)"><circle class="outline" cx="0" cy="0" r="25" fill="#F79767" stroke="#f36924" stroke-width="2px"/><text text-anchor="middle" pointer-events="none" font-family="sans-serif" dy="1.5625" font-size="25" fill="#FFFFFF"/><text text-anchor="middle" pointer-events="none" font-family="sans-serif" dy="1.5625" font-size="25" fill="#FFFFFF"/><text text-anchor="middle" pointer-events="none" y="0" font-size="10px" fill="#FFFFFF" font-family="sans-serif"> Tommy</text><text text-anchor="middle" pointer-events="none" y="10" font-size="10px" fill="#FFFFFF" font-family="sans-serif"> Lee Jon…</text></g><g class="node" transform="translate(-19.869249785888062,166.29340133590597)"><circle class="outline" cx="0" cy="0" r="25" fill="#F79767" stroke="#f36924" stroke-width="2px"/><text text-anchor="middle" pointer-events="none" font-family="sans-serif" dy="1.5625" font-size="25" fill="#FFFFFF"/><text text-anchor="middle" pointer-events="none" font-family="sans-serif" dy="1.5625" font-size="25" fill="#FFFFFF"/><text text-anchor="middle" pointer-events="none" y="0" font-size="10px" fill="#FFFFFF" font-family="sans-serif"> Hugo</text><text text-anchor="middle" pointer-events="none" y="10" font-size="10px" fill="#FFFFFF" font-family="sans-serif"> Weaving</text></g><g class="node" transform="translate(46.287321172457816,226.0152317536073)"><circle class="outline" cx="0" cy="0" r="25" fill="#F79767" stroke="#f36924" stroke-width="2px"/><text text-anchor="middle" pointer-events="none" font-family="sans-serif" dy="1.5625" font-size="25" fill="#FFFFFF"/><text text-anchor="middle" pointer-events="none" font-family="sans-serif" dy="1.5625" font-size="25" fill="#FFFFFF"/><text text-anchor="middle" pointer-events="none" y="0" font-size="10px" fill="#FFFFFF" font-family="sans-serif"> Dominic</text><text text-anchor="middle" pointer-events="none" y="10" font-size="10px" fill="#FFFFFF" font-family="sans-serif"> Cooper</text></g></g></svg>